<svg version="1.1" id="Layer_1" xmlns="http://www.w3.org/2000/svg" x="0" y="0" viewBox="0 0 446.7 458.2" xml:space="preserve" preserveAspectRatio="none">
<style>.st2{fill:#f2e8e7}.st3{fill:#e0adb5}.st4{fill:#7a6c65}.st5{fill:#d6797e}</style>
<path d="M67 59S121-7.1 231.4 3.1 380 49.6 395 74s23 18.9 42.9 88.9-8.7 162.1-8.7 162.1-27.8 64.5-93.7 99.1-73.1 37-153.3 26.7-132.7-74-132.7-74-29.4-35.4-42.1-79.5-4-129.8 7.9-151.8S30.5 102.3 67 59z" fill="#4c6c8e" stroke="#f2e8e2" stroke-width="2.01" stroke-miterlimit="10"/>
<path d="M43 148.1S2.9 96.9 67.3 96.4c0 0-11.9-62.1 45-48.1 0 0-3.7-25.8 17.1-30.6s33.8 1.3 37 13.2c0 0 8-30.5 30.8-29.4s23.8 4.8 30.5 14c0 0 26.8-26.5 54-.4 0 0 7.1 7.7 5.6 17 0 0 26.1-21.4 46.5-5.5S344 61.7 344 61.7s22.2-14.5 42.3 5.8c20.1 20.3 2.3 39.1 2.3 39.1s37.5 6.2 41.2 25.4c3.7 19.2-12 28.6-12 28.6s26.9 6.4 25.8 35.5c0 0 2.3 20.8-18.6 26.8 0 0 38.7 37.4-5.6 66.9 0 0 28.3 41.3-23.5 52.4 0 0 8.2 59-45.8 54.6 0 0-14.9 44.2-58.1 26.9 0 0-29.4 53.1-72.2 11.8 0 0-45 35-59.9-15.1 0 0-49.1 33.2-63.7-26.5 0 0-52.9 10.7-43.2-50.9 0 0-55.5-13.3-27.9-65.6 0 0-36.9-31-.4-67.1 0 0-23.8-28.8-9.7-47.6s28-14.6 28-14.6z" fill="#ebcccb" stroke="#e0adb5" stroke-width="2.01" stroke-miterlimit="10"/>
<path class="st2" d="M42.9 148c0-.1.2-.1.3-.1h.4l.5-.1c.3 0 .7-.1 1-.2.7-.1 1.4-.3 2-.4 1.3-.3 2.7-.7 4-1.2 2.6-1 5-2.3 7.2-3.9s4.2-3.6 5.8-5.8c1.6-2.2 2.8-4.7 3.7-7.3.9-2.6 1.5-5.3 1.7-8 .2-1.4.2-2.7.2-4.1 0-1.4-.1-2.7-.1-4.1-.4-5.5-1.5-10.9-2.9-16.2l-.2-.7.7-.1c2.9-.5 5.9-1.3 8.8-2.1 2.9-.9 5.8-1.9 8.5-3 5.6-2.3 10.9-5.3 15.5-9.1 2.3-1.9 4.4-4 6.2-6.4 1.8-2.3 3.3-4.9 4.4-7.7 2.3-5.5 2.8-11.6 2.2-17.5l-.2-1.9 1.7.9c2.3 1.3 4.9 2.3 7.4 3.3 2.6.9 5.2 1.6 7.8 2.2 5.3 1 10.8 1.1 15.9-.4 2.5-.7 5-1.9 7.1-3.4 2.2-1.5 4-3.4 5.7-5.5 3.2-4.3 5.4-9.3 6.9-14.5l.5-1.7 1.4 1.1c5 3.8 10.5 7.1 16.3 9.6 5.8 2.5 12 4.2 18.1 4 3.1-.1 6.1-.7 8.9-1.9 2.8-1.2 5.3-3 7.4-5.2 4.2-4.5 7-10.2 8.9-16.2l2.1-6.6.5 6.9c.2 3 .9 6.1 1.9 9 1 2.9 2.4 5.6 4.2 8 1.8 2.4 4.2 4.3 6.9 5.6 2.7 1.3 5.7 1.9 8.7 2 3 .1 6.1-.4 9.1-1 1.5-.4 3-.7 4.5-1.3l2.2-.7c.7-.2 1.5-.6 2.2-.9 5.8-2.3 11.4-5.4 16.8-8.7l1.3-.8.5 1.5c.9 2.6 2.2 5.3 3.6 7.7 1.5 2.5 3.1 4.8 5 7 3.7 4.4 8.3 8 13.4 10.5 2.6 1.3 5.3 2.2 8.1 2.9 1.4.4 2.8.6 4.2.8 1.4.1 2.9.4 4.3.4 5.8.2 11.6-.5 17.2-1.9l1.5-.4-.2 1.5c-.5 2.8-.5 5.8-.3 8.7.2 2.9.8 5.8 1.8 8.6 1.8 5.6 5.1 10.6 9.5 14.5 4.4 3.9 9.7 6.7 15.3 8.7 5.6 2 11.5 3 17.4 3.7l.9.1-.4.9c-1.3 2.6-2.4 5.4-3.1 8.2-.7 2.9-1.2 5.8-1.2 8.7-.1 5.9 1.4 11.8 4.4 16.8 1.6 2.5 3.5 4.8 5.6 6.8 1.1 1 2.2 2 3.4 2.9 1.1.9 2.4 1.7 3.6 2.5 5 3.2 10.5 5.5 16.1 7.3l.8.3-.6.6c-2.3 2.1-4.3 4.5-6.2 7-1.9 2.5-3.6 5.2-4.9 8-2.8 5.6-4.4 11.8-3.8 18 .3 3.1 1.2 6.1 2.5 8.9 1.3 2.8 3 5.4 5.1 7.8 4.1 4.7 9.1 8.6 14.5 11.8l.6.4-.5.5c-4.6 4.5-8.7 9.6-12.2 15s-6.4 11.3-7.9 17.5c-.7 3.1-1.1 6.3-1 9.5.1 3.2.8 6.3 2 9.2l.5 1.1.2.5.3.5 1.2 2.1c.9 1.3 1.7 2.6 2.8 3.8 2 2.5 4.5 4.5 7 6.5l1.3 1-1.6.4c-5.2 1.2-10.3 3.4-14.8 6.2-4.5 2.9-8.5 6.7-11 11.4-1.3 2.3-2.1 4.9-2.6 7.5-.3 1.3-.4 2.6-.5 3.9v3l.1 1c.4 5.3 2 10.6 4.2 15.5l.7 1.5-1.7-.1c-6.5-.2-13.3.8-19.4 3.1-6.2 2.3-11.8 6.1-15.8 11.3-2 2.6-3.7 5.4-4.9 8.4-.3.7-.6 1.5-.9 2.3-.3.8-.6 1.5-.7 2.3l-.6 2.4-.5 2.4c-1.2 6.5-1.1 13.2-.4 19.8l.3 2.8-2.4-1.6c-2.4-1.6-5.3-2.9-8.1-3.9-2.9-1-5.8-1.6-8.8-1.9-3-.2-6 0-8.9.7-2.9.7-5.6 1.9-8.2 3.6-1.3.8-2.4 1.7-3.6 2.7-1.1 1-2.3 2-3.3 3.2-2.1 2.2-3.9 4.7-5.6 7.2-3.3 5.2-5.8 10.8-7.9 16.7l-.7 1.8-1.6-1.2c-2.6-1.9-5.5-3.5-8.5-5-3-1.4-6.1-2.6-9.2-3.5-6.3-1.8-13-2.5-19.5-1.5s-12.6 3.5-18 7.3-10 8.6-13.9 14l-1.6 2.2-1.2-2.5c-1.2-2.5-2.7-5-4.4-7.3-1.7-2.3-3.6-4.5-5.7-6.5-4.1-3.9-9.1-6.9-14.6-8.3-1.4-.4-2.8-.6-4.1-.8l-2.1-.1c-.7-.1-1.4 0-2.1 0h-1.1l-1.1.1c-.7.1-1.4.1-2.1.3-1.4.3-2.8.5-4.2.9-5.5 1.5-10.7 4.1-15.6 7.3l-1.4.9-.8-1.5c-3-5.5-6.7-10.7-10.8-15.5-4.1-4.8-8.7-9.2-13.9-12.6-5.2-3.4-11.2-5.6-17.3-5.5-3 0-6 .7-8.9 1.7l-2.1.9-2 1.1c-.3.2-.7.4-1 .6l-1 .6-1.9 1.3-3.1 2 .7-3.6c1.2-6.1 1.4-12.6.3-18.7-1-6.2-3.4-12.1-7.5-16.8-.5-.6-1-1.2-1.6-1.7l-1.7-1.6-1.8-1.4c-.6-.5-1.3-.8-1.9-1.3-2.7-1.6-5.5-2.9-8.5-3.8-6-1.9-12.4-2.5-18.8-2.4h-1.4l.1-1.4c.5-6.6.6-13.3.3-19.9-.3-6.6-1.1-13.3-2.6-19.7-.8-3.2-1.7-6.4-3-9.4-1.2-3-2.8-5.9-4.8-8.4s-4.5-4.7-7.3-6c-2.8-1.4-6-2-9.3-2.1h-1.9l1.1-1.6c3.2-4.7 5.8-10 7.8-15.5 1.9-5.5 3.2-11.2 3.3-17 .2-5.8-.7-11.6-2.8-17-2-5.4-5.3-10.3-9.2-14.6l-.4-.5.4-.4c4.1-4 7.8-8.5 11.2-13.1 3.4-4.7 6.4-9.6 8.6-14.9 2.2-5.3 3.7-11 3.3-16.7-.2-2.9-.9-5.7-2.1-8.3-.7-1.3-1.3-2.6-2.2-3.7-.3-1.4-1.4-2.6-2.3-3.8zm.3.2c1 1 2 1.9 2.8 3.2.9 1.1 1.6 2.5 2.3 3.7 1.3 2.6 2 5.5 2.2 8.4.5 5.9-.9 11.7-3.1 17.1-2.2 5.4-5.2 10.5-8.5 15.2-3.4 4.8-7 9.3-11.1 13.5v-.9c4 4.4 7.5 9.4 9.6 15 2.2 5.6 3.2 11.6 3 17.6-.1 6-1.3 11.9-3.3 17.5-2 5.6-4.5 11-7.9 16l-.8-1.6c3.5 0 7 .6 10.2 2.2 3.2 1.5 5.9 3.9 8.1 6.6 2.2 2.7 3.9 5.8 5.2 8.9 1.3 3.2 2.4 6.4 3.1 9.7 1.6 6.6 2.4 13.4 2.7 20.1.4 6.8.3 13.5-.2 20.3l-1.3-1.4c6.6-.1 13.2.5 19.6 2.4 3.2.9 6.3 2.3 9.2 4 .7.5 1.4.9 2.1 1.4l2 1.5c.6.6 1.2 1.1 1.9 1.7.6.6 1.2 1.2 1.7 1.8 4.5 5.1 7.1 11.6 8.2 18.1.6 3.3.8 6.6.8 9.9-.1 3.3-.3 6.6-1 10l-2.4-1.6 2.1-1.4 1-.7c.4-.2.7-.4 1.1-.6l2.2-1.2 2.3-1c3.2-1.2 6.5-1.9 9.9-2 6.8-.1 13.4 2.4 19 6s10.4 8.2 14.6 13.2c4.2 5 8 10.3 11.2 16.1l-2.2-.6c5-3.3 10.5-6.1 16.5-7.7 1.5-.5 3-.7 4.5-1 .8-.1 1.5-.2 2.3-.3l1.2-.1h1.2c.8 0 1.6-.1 2.3 0l2.3.1c1.5.2 3.1.4 4.6.8 6.1 1.5 11.6 4.8 16 9.1 2.2 2.1 4.2 4.4 6.1 6.9 1.8 2.5 3.4 5 4.7 7.9l-2.7-.3c4.1-5.5 9-10.6 14.7-14.6 5.7-4 12.4-6.8 19.3-7.8 7-1 14.1-.3 20.7 1.7 3.3 1 6.6 2.2 9.7 3.7 3.1 1.5 6.1 3.2 9 5.3l-2.3.7c2.2-5.9 4.8-11.8 8.3-17.2 1.8-2.7 3.7-5.3 5.9-7.6 1.1-1.2 2.3-2.3 3.5-3.4 1.3-1 2.6-2 4-2.9 2.8-1.7 5.8-3.1 9-3.9 3.2-.8 6.5-1 9.8-.8 3.3.2 6.5.9 9.5 2 1.5.5 3 1.2 4.5 1.9s2.8 1.5 4.3 2.4l-2.1 1.2c-.7-6.8-.7-13.7.6-20.5l.5-2.5.7-2.5c.2-.8.5-1.7.8-2.5l.9-2.4c1.3-3.2 3.2-6.2 5.3-8.9 4.3-5.5 10.4-9.5 16.8-11.9 3.2-1.2 6.6-2 10-2.5 3.4-.5 6.8-.7 10.3-.6l-1 1.4c-2.2-5.1-3.8-10.5-4.2-16.2l-.1-1.1v-1.1-2.1c.1-1.4.2-2.8.5-4.2.6-2.8 1.5-5.5 2.9-8 2.8-5 7-9 11.7-11.9 4.8-3 9.9-5.1 15.4-6.4l-.3 1.4c-2.6-2-5.1-4.2-7.2-6.8-1.1-1.2-2-2.6-2.9-4-.8-1.5-1.6-2.9-2.2-4.5-1.2-3.1-1.9-6.4-2.1-9.7-.1-3.3.3-6.6 1.1-9.8 1.6-6.4 4.6-12.3 8.2-17.8 3.6-5.5 7.7-10.5 12.4-15.1l.1.8c-5.4-3.3-10.6-7.2-14.7-12.1-2.1-2.4-3.9-5.1-5.2-8-1.4-2.9-2.3-6-2.5-9.2-.6-6.4 1.1-12.9 3.9-18.5 2.9-5.7 6.7-10.8 11.3-15.3l.2.8c-5.7-1.9-11.3-4.2-16.4-7.4-1.3-.8-2.5-1.6-3.7-2.6-1.2-.9-2.3-1.9-3.5-2.9-2.2-2.1-4.2-4.4-5.8-7-3.2-5.2-4.8-11.3-4.7-17.4 0-3 .5-6.1 1.2-9 .7-2.9 1.7-5.8 3.1-8.5l.5 1c-6-.6-12-1.6-17.8-3.6-5.7-1.9-11.3-4.8-15.9-8.8-4.6-4-8.2-9.3-10.1-15.1-1-2.9-1.6-5.9-1.9-9-.3-3.1-.3-6.1.2-9.2l1.2 1.1c-5.8 1.5-11.8 2.3-17.8 2.1-1.5 0-3-.2-4.5-.3-1.5-.3-3-.4-4.5-.8-3-.6-5.8-1.7-8.6-3-5.5-2.6-10.4-6.4-14.3-11-2-2.3-3.7-4.8-5.3-7.4-1.5-2.6-2.9-5.3-3.9-8.2l1.9.7c-5.5 3.4-11.1 6.5-17.1 8.9-.8.3-1.5.6-2.3.9l-2.3.8c-1.5.6-3.1.9-4.7 1.3-3.2.7-6.5 1.2-9.8 1.1-3.3-.1-6.7-.8-9.8-2.2-3.1-1.4-5.8-3.6-7.9-6.3-2.1-2.7-3.6-5.7-4.7-8.8-.5-1.6-1-3.2-1.3-4.8-.3-1.6-.6-3.2-.7-4.9l2.6.3c-2 6.2-4.9 12.3-9.6 17.2-2.4 2.4-5.2 4.4-8.3 5.7-3.1 1.3-6.5 2-9.8 2.1-3.4.1-6.7-.4-9.9-1.1-3.2-.8-6.3-1.9-9.3-3.2-6-2.6-11.6-6-16.8-10l1.9-.6c-1.5 5.4-3.9 10.7-7.3 15.3-1.8 2.2-3.8 4.3-6.2 6-2.4 1.6-5 2.9-7.8 3.7-5.6 1.6-11.4 1.4-17 .3-2.8-.6-5.5-1.3-8.1-2.3-2.7-1-5.2-2.1-7.7-3.5l1.5-1c.6 6.2 0 12.6-2.5 18.4-1.2 2.9-2.8 5.6-4.8 8.1-1.9 2.4-4.2 4.6-6.6 6.6-4.8 3.9-10.3 6.9-16 9.2-5.7 2.3-11.6 4-17.7 5l.5-.8c1.4 5.4 2.4 10.9 2.7 16.5 0 1.4.1 2.8.1 4.2-.1 1.4-.1 2.8-.3 4.2-.3 2.8-.9 5.6-1.9 8.2-.9 2.6-2.2 5.2-3.9 7.4-1.7 2.3-3.7 4.2-6 5.9-2.3 1.6-4.8 2.9-7.4 3.8-1.3.5-2.7.8-4 1.1-.7.1-1.4.3-2.1.4-.3.1-.7.1-1 .1l-.5.1h-.3l.4.5c-.1.1 0 0 0 0z"/>
<path class="st3" d="M207.4 217.8S78.1 175.6 77 133.3s9.8-37.4 23-49.8c0 0 10.9-8.1 25.7-11.4s9.3-6 28.4-22.7 44.3-3.8 48.7 0c4.4 3.8 21.3 10.3 18 42.2s-2.2 111-2.2 111l-11.2 15.2z"/>
<path class="st4" d="M207.4 217.8c-8.7-2.9-17.3-6.1-25.8-9.4-8.5-3.3-17-6.9-25.4-10.6-8.4-3.7-16.6-7.7-24.7-12-8.1-4.3-16-8.9-23.6-14-3.8-2.6-7.5-5.3-11-8.2-3.5-2.9-6.9-6-10-9.5-3-3.4-5.8-7.2-7.6-11.4-1-2.1-1.6-4.3-2-6.6-.4-2.3-.3-4.6-.3-6.9v-3.4l.1-3.4c0-1.1 0-2.3.1-3.4l.3-3.4c.5-4.5 1.1-9.1 2.9-13.4l.7-1.6c.3-.5.5-1.1.8-1.5.6-1 1.2-2 2-2.8 1.4-1.8 3.3-3.2 5.1-4.6 3.7-2.6 7.6-5.1 10.9-8.3 4.8-3.3 9.9-6 15.3-8.2 2.7-1.1 5.5-2 8.3-2.7 2.8-.7 5.7-1.2 8.4-2.3 1.3-.5 2.6-1.2 3.7-2.1 1.1-.9 2.1-1.9 3.1-3 1.9-2.2 3.7-4.4 5.7-6.6 2-2.1 4-4.2 6.1-6.2 2.2-1.9 4.2-4 6.7-5.6 4.8-3.3 10.4-5.4 16.3-5.8 5.8-.5 11.7.4 17.2 2.2 2.8.9 5.5 2 8 3.4 1.3.7 2.5 1.4 3.7 2.3.6.5 1.1.9 1.7 1.3l1.8 1.2c2.4 1.6 4.7 3.5 6.6 5.6.5.5 1 1.1 1.4 1.7.4.6.9 1.1 1.3 1.8l1.2 1.8 1 1.9c2.6 5.2 3.7 11.1 4 16.9v4.4c0 1.5-.2 2.9-.3 4.3-.2 2.9-.5 5.8-.7 8.7-.8 11.5-1.2 23.1-1.5 34.7-.5 23.2-.5 46.3-.3 69.5l-11.2 15.2zm0-.1l11.2-15.1c-.3-23.2-.3-46.3.1-69.5.2-11.6.6-23.2 1.4-34.7.2-2.9.5-5.8.7-8.7.1-1.4.2-2.9.3-4.3v-4.3c-.3-5.7-1.3-11.6-3.9-16.7l-1-1.9-1.2-1.8c-.4-.6-.8-1.2-1.3-1.7-.4-.6-.9-1.1-1.4-1.6-1.9-2.1-4.2-3.9-6.6-5.6l-1.8-1.2c-.6-.4-1.2-.9-1.7-1.3-1.1-.9-2.4-1.6-3.7-2.3-2.5-1.4-5.2-2.5-8-3.4-5.5-1.8-11.3-2.6-17.1-2.2-5.7.4-11.4 2.4-16.1 5.7-2.4 1.6-4.5 3.6-6.6 5.6-2.1 2-4.2 4-6.1 6.1-2 2.1-3.8 4.3-5.7 6.5-.9 1.1-2 2.2-3.1 3.1-1.1.9-2.5 1.6-3.8 2.1-2.7 1.1-5.6 1.6-8.4 2.3-2.8.7-5.5 1.6-8.2 2.7-5.4 2.1-10.5 4.8-15.3 8.1-3.3 3.2-7.2 5.7-11 8.3-1.8 1.4-3.6 2.8-5.1 4.5-.8.8-1.4 1.8-2 2.8-.3.5-.5 1-.8 1.5l-.7 1.5c-1.8 4.2-2.4 8.8-2.9 13.3l-.3 3.4c-.1 1.1-.1 2.3-.1 3.4l-.1 3.4v3.4c0 2.3-.1 4.6.3 6.8s1 4.5 2 6.5c1.9 4.2 4.6 7.9 7.6 11.3 3 3.4 6.4 6.5 9.9 9.5 3.5 2.9 7.2 5.6 11 8.2 7.6 5.1 15.5 9.7 23.6 14 8.1 4.3 16.4 8.3 24.7 12 16.8 7.8 33.9 14.5 51.2 20.3z"/>
<path class="st3" d="M208.4 220.5s-111-72.9-153.5-35.2c0 0-25.4 21.4-4.4 58.4 0 0 7 13.9 12.1 23.8 2 3.9-2.5 8.8-3.8 12.1-6.1 14.5-1.9 47.1 29.2 62.2 29.1 14.1 85-30.8 85-30.8s38-42.7 35.4-90.5z"/>
<path class="st4" d="M208.4 220.5c-7.7-4.9-15.6-9.5-23.6-13.9-8-4.4-16.2-8.5-24.5-12.3-8.3-3.8-16.7-7.3-25.4-10.3-8.6-3-17.4-5.6-26.4-7.3-8.9-1.7-18.1-2.7-27.2-1.8-4.5.4-9 1.3-13.3 2.8-4.3 1.6-8.4 3.7-11.9 6.6-1.8 1.4-3.4 3.1-4.8 4.8-1.4 1.8-2.7 3.7-3.8 5.7-2.2 4-3.8 8.3-4.6 12.8-.9 4.5-.9 9.1-.3 13.6.6 4.5 1.8 8.9 3.5 13.2.8 2.1 1.8 4.2 2.8 6.2l1.6 3 1.6 3.1 6.2 12.2 3.1 6.1.8 1.5c.3.5.5 1 .7 1.6.4 1.1.3 2.4-.1 3.5-.7 2.2-1.9 4.2-3.1 6.1-1.2 1.9-1.8 4.1-2.4 6.3-1 4.4-1.1 9-.7 13.6.4 4.5 1.4 9 3 13.3 3.1 8.6 8.4 16.3 15.3 22.2 3.4 3 7.3 5.5 11.3 7.6l1.5.8c.5.2 1 .4 1.6.7.5.2 1 .5 1.6.6l1.6.5c2.2.6 4.5.9 6.7 1 4.5.2 9.1-.4 13.5-1.4 4.4-1 8.8-2.5 13-4.1 8.5-3.4 16.6-7.7 24.4-12.4 7.8-4.7 15.4-9.9 22.6-15.5 5.4-6.3 10.2-13.1 14.5-20.1 4.3-7 8.2-14.4 11.5-22 1.6-3.8 3.1-7.7 4.4-11.6 1.3-3.9 2.3-7.9 3.2-12 1.8-8.1 2.5-16.4 2.1-24.7zm0 0c.4 8.3-.3 16.6-2 24.7-.8 4.1-1.9 8.1-3.2 12-1.3 3.9-2.7 7.8-4.3 11.6-3.2 7.6-7.1 15-11.4 22.1-4.4 7-9.1 13.9-14.5 20.2-7.2 5.6-14.7 10.8-22.5 15.6-7.8 4.7-15.9 9-24.4 12.4-4.3 1.7-8.6 3.1-13.1 4.2-4.5 1-9 1.6-13.6 1.4-2.3-.1-4.6-.4-6.8-1l-1.7-.5c-.6-.2-1.1-.4-1.6-.6-.5-.2-1.1-.4-1.6-.7l-1.5-.8c-4.1-2.1-7.9-4.7-11.4-7.7-6.9-6-12.3-13.8-15.4-22.4-1.6-4.3-2.6-8.8-3-13.4-.4-4.6-.3-9.2.8-13.7.5-2.2 1.2-4.5 2.4-6.4 1.1-2 2.4-3.9 3-6.1.3-1.1.4-2.2.1-3.3-.2-.5-.4-1-.7-1.5l-.8-1.5-3.1-6.1-6.2-12.2-1.6-3.1-1.6-3c-1-2-2-4.1-2.8-6.3-1.7-4.3-2.9-8.7-3.5-13.2-.6-4.5-.5-9.2.3-13.7s2.4-8.9 4.7-12.9c1.1-2 2.4-3.9 3.8-5.7 1.4-1.8 3-3.5 4.8-4.9 3.5-2.9 7.6-5.1 11.9-6.6 4.3-1.6 8.8-2.4 13.4-2.8 9.1-.8 18.3.1 27.3 1.9 9 1.7 17.8 4.3 26.4 7.4 8.6 3 17.1 6.5 25.3 10.4 8.3 3.8 16.4 7.9 24.5 12.3 8.1 4.4 16 9 23.6 13.9z"/>
<path class="st3" d="M235.1 232.4s93.5 107.8 69.4 145.7-58.5 23.3-67.8 22.2-18.6-2.7-45.4 5.4-58.5-13.5-58.5-26.5-5.5-15.2-5.5-22.2 9.3-26.5 17.5-33.6c8.2-7 69.4-90.4 69.4-90.4l20.9-.6z"/>
<path class="st4" d="M235.1 232.4c7.3 8.5 14.3 17.3 21 26.2 6.8 8.9 13.3 18 19.5 27.4 6.2 9.3 12.1 18.9 17.3 28.8 5.2 9.9 9.9 20.1 13 30.9 1.5 5.4 2.6 10.9 2.6 16.6.1 5.6-1 11.4-4.1 16.1-3 4.7-6.5 9.1-10.7 13-4.1 3.8-8.9 7-14 9.2-5.2 2.1-10.8 3.4-16.4 3.6-5.6.2-11.2-.4-16.7-1.5-10.8-2.9-22.2-3.9-33.2-2-5.5.9-11 2.2-16.4 3.7-2.7.7-5.4 1.6-8.1 2.3-2.7.6-5.5 1-8.3 1.1-5.6.2-11.3-.6-16.6-2.2-5.4-1.6-10.6-3.9-15.4-6.8-4.8-3-9.2-6.5-12.6-11-.4-.6-.8-1.2-1.2-1.7-.3-.6-.7-1.2-1-1.9-.6-1.3-1-2.7-1.2-4.1-.1-1.4 0-2.8-.2-4.2 0-.7-.1-1.4-.2-2.1-.1-.7-.2-1.4-.4-2.1-.6-2.7-1.7-5.3-2.9-7.8-.6-1.3-1.1-2.6-1.4-4-.3-1.4-.4-2.8-.2-4.2.4-2.8 1.3-5.5 2.3-8.1 1-2.6 2.2-5.2 3.4-7.7 2.6-5 5.5-9.8 9.2-14.1.9-1.1 2-2 3-3l1.5-1.5c.5-.5.9-1.1 1.4-1.6 1.8-2.1 3.6-4.3 5.4-6.4 7-8.7 13.8-17.6 20.6-26.5C187.7 269 201 251 214.3 233l20.8-.6zm0 0l-20.8.6c-13.3 18.1-26.6 36-40.1 53.9-6.8 8.9-13.5 17.8-20.5 26.6-1.8 2.2-3.5 4.4-5.4 6.5-.5.5-.9 1.1-1.4 1.6l-1.5 1.5c-1 1-2 1.9-2.9 3-3.7 4.2-6.6 9-9.2 14-1.3 2.5-2.4 5-3.4 7.6-1 2.6-1.9 5.3-2.3 8-.2 1.4-.1 2.8.2 4.1.3 1.3.8 2.6 1.4 3.9 1.2 2.5 2.4 5.1 2.9 7.9.1.7.3 1.4.4 2.1.1.7.2 1.4.2 2.1.2 1.4.1 2.8.2 4.2.1 1.4.5 2.7 1.1 3.9.3.6.7 1.2 1 1.8.4.6.7 1.2 1.2 1.7 3.4 4.5 7.8 8 12.5 10.9 4.7 2.9 9.9 5.2 15.3 6.8 5.4 1.6 11 2.4 16.5 2.2 2.8-.1 5.6-.5 8.3-1.1 2.7-.7 5.4-1.5 8.1-2.3 5.4-1.5 10.9-2.8 16.4-3.7 11.1-1.9 22.5-.8 33.3 2 5.5 1.1 11.1 1.8 16.7 1.5 5.6-.2 11.1-1.4 16.3-3.5 5.1-2.2 9.9-5.3 14-9.1s7.6-8.2 10.6-12.9c3.1-4.7 4.1-10.4 4.1-16s-1.1-11.1-2.6-16.5c-3.1-10.8-7.8-21-13-30.9-5.2-9.9-11.1-19.5-17.3-28.8-6.2-9.3-12.7-18.5-19.4-27.4-6.7-8.9-13.7-17.7-20.9-26.2z"/>
    <g>
        <path class="st3" d="M269.5 263.8s28.4 89.4 77.1 83.4 38.3-47.1 38.3-47.1-3.3-19.5 8.2-34.7c11.5-15.2 18-27.6 10.4-53.6s-48.7-28.2-48.7-28.2-44.3 4.3-68.4 23.3-16.9 56.9-16.9 56.9z"/>
        <path class="st4" d="M269.5 263.8c2.5 7.6 5.5 15 8.9 22.2 3.3 7.2 7 14.3 11.1 21.2 4.1 6.8 8.7 13.4 14 19.3 5.3 6 11.3 11.4 18.2 15.3 6.9 3.9 14.9 6.1 22.9 5.5 2-.1 3.9-.5 5.9-.8 1-.2 2-.4 2.9-.6l1.5-.3 1.4-.4c3.9-1 7.6-2.4 11.1-4.3s6.7-4.3 9.4-7.2c2.7-2.9 4.8-6.4 6.2-10.1 2.8-7.4 3.3-15.7 1.7-23.5-.4-3.2-.5-6.4-.4-9.6.2-3.2.6-6.4 1.4-9.5.2-.8.4-1.6.6-2.3.2-.8.4-1.5.7-2.3l.8-2.3 1-2.2c.3-.7.7-1.4 1.1-2.1.4-.7.7-1.4 1.2-2.1.9-1.3 1.8-2.7 2.8-3.9 1.9-2.6 3.7-5.2 5.4-7.9 1.7-2.7 3.1-5.6 4.3-8.5.6-1.5 1-3 1.5-4.5.2-.8.3-1.6.5-2.3.1-.4.2-.8.2-1.2l.2-1.2c.5-3.1.5-6.4.3-9.5-.5-6.4-1.9-12.6-3.8-18.7-2.2-6-6.6-11-11.8-14.6-5.2-3.7-11.2-6.2-17.3-8-6.1-1.8-12.4-3-18.8-3.5-5.6.6-11.1 1.6-16.7 2.7-5.5 1.1-11 2.4-16.4 4-10.8 3.1-21.4 7.3-30.8 13.4-2.3 1.6-4.6 3.2-6.7 5.1-2.1 1.9-3.9 4-5.6 6.3-3.3 4.6-5.7 9.7-7.3 15.1-1.6 5.4-2.4 11-2.7 16.6 0 5.5.3 11.2 1.1 16.7zm0 0c-.9-5.6-1.1-11.2-.9-16.8.3-5.6 1.1-11.2 2.7-16.7 1.6-5.4 4-10.6 7.3-15.2 1.7-2.3 3.5-4.4 5.6-6.3 2.1-1.9 4.4-3.5 6.7-5.1 9.5-6.1 20.1-10.3 30.9-13.5 5.4-1.6 10.9-2.9 16.4-4.1 5.5-1.1 11.1-2 16.7-2.7 6.4.5 12.7 1.7 18.9 3.5 6.1 1.8 12.1 4.4 17.4 8.1 5.2 3.7 9.7 8.7 11.9 14.8 2 6.1 3.4 12.4 3.8 18.8.1 3.2.2 6.4-.4 9.6l-.2 1.2c-.1.4-.2.8-.2 1.2-.2.8-.3 1.6-.5 2.3-.5 1.5-.9 3.1-1.5 4.6-1.2 3-2.6 5.9-4.3 8.6-1.7 2.7-3.5 5.4-5.4 7.9-1 1.3-1.9 2.6-2.8 3.9-.5.6-.8 1.4-1.2 2.1-.4.7-.8 1.4-1.1 2.1l-1 2.2-.8 2.2c-.3.7-.5 1.5-.7 2.3-.2.8-.5 1.5-.6 2.3-.8 3.1-1.2 6.3-1.4 9.5-.2 3.2-.1 6.4.3 9.5.9 3.9 1.1 7.9.8 11.9-.3 4-1.1 8-2.5 11.7-1.5 3.7-3.6 7.2-6.3 10.1-2.7 2.9-6 5.4-9.5 7.3-3.5 1.9-7.3 3.3-11.1 4.3l-1.4.4-1.5.3c-1 .2-1.9.4-2.9.6-2 .3-3.9.6-5.9.8-4 .3-8-.1-11.9-1.1-3.9-1-7.6-2.5-11.1-4.5-7-3.9-13-9.4-18.2-15.4-5.3-6-9.9-12.6-14-19.4-4.1-6.8-7.8-13.9-11.1-21.2-3.5-7.1-6.5-14.5-9-22.1z"/>
    </g>

    <g>
        <path class="st3" d="M228 188.5s-12.6-99.1 8.7-120.8 36.6-24.9 54.1-19c17.5 6 24.6 21.7 36.1 30.3s27.3 19 39.4 23.8 31.2 45-6 68.2-87.5 33-87.5 33l-42.7 12.5-2.1-28z"/>
        <path class="st4" d="M228 188.6c-1.1-9.4-2-18.8-2.6-28.2-.6-9.4-1-18.9-1.1-28.3-.1-9.5.2-18.9 1.1-28.3.5-4.7 1.1-9.4 2-14 .9-4.6 2.1-9.2 4-13.6.9-2.2 2.1-4.3 3.5-6.2 1.4-1.9 3.2-3.5 4.9-5.1 3.4-3.2 7-6.4 10.8-9.1 3.8-2.8 7.9-5.2 12.4-6.9 4.4-1.7 9.2-2.6 13.9-2.6 4.7.1 9.4 1 13.9 2.6 4.5 1.5 8.7 3.9 12.4 6.8 3.8 2.9 7.1 6.3 10.2 9.8 3.2 3.5 6.2 7.1 9.6 10.4 1.7 1.6 3.5 3.1 5.4 4.5 1.9 1.4 3.8 2.8 5.7 4.1 3.9 2.7 7.8 5.3 11.8 7.8 4 2.5 8.1 4.9 12.3 7 2.1 1.1 4.2 2.1 6.4 3 1.1.5 2.2.9 3.2 1.5l.8.5.7.6c.5.4.9.8 1.3 1.2 1.7 1.6 3.2 3.5 4.5 5.5 1.3 2 2.4 4.1 3.3 6.3 1.9 4.4 3.1 9 3.5 13.7.5 4.7.1 9.5-1.1 14.1-1.2 4.6-3.4 8.9-6.1 12.8-2.8 3.8-6.2 7.2-10 10-3.8 2.9-7.9 5.1-12 7.5-8.3 4.6-16.9 8.5-25.7 12.1-8.8 3.5-17.7 6.6-26.8 9.3-9.1 2.7-18.2 5.1-27.5 7L230 216.8h-.1v-.1l-1.9-28.1zm0-.1l2.2 28.2-.1-.1 42.6-12.5c9.2-1.9 18.4-4.4 27.4-7.1 9-2.8 18-5.9 26.7-9.4 8.7-3.6 17.4-7.5 25.6-12.1 4.1-2.4 8.2-4.7 12-7.5 3.8-2.8 7.2-6.1 9.9-10 2.7-3.8 4.9-8.1 6.1-12.6 1.2-4.5 1.6-9.3 1.1-14-.4-4.7-1.6-9.3-3.5-13.6-.9-2.2-2-4.3-3.3-6.2-1.3-2-2.7-3.9-4.4-5.5-.4-.4-.8-.8-1.3-1.2l-.7-.5-.7-.5c-1-.6-2.1-1-3.2-1.5-2.2-.9-4.3-2-6.4-3.1-4.2-2.2-8.3-4.5-12.3-7s-8-5.1-11.8-7.8c-1.9-1.4-3.9-2.7-5.7-4.2-1.9-1.4-3.7-2.9-5.5-4.5-3.4-3.3-6.5-6.9-9.6-10.4-3.2-3.5-6.5-6.9-10.2-9.8-3.7-2.9-7.9-5.2-12.4-6.7s-9.1-2.5-13.8-2.6c-4.7-.1-9.4.8-13.8 2.5s-8.5 4.1-12.3 6.9c-3.9 2.7-7.4 5.9-10.8 9.1-1.7 1.7-3.5 3.2-4.9 5.1-1.4 1.9-2.5 4-3.5 6.1-1.9 4.3-3.1 8.9-4 13.5-.9 4.6-1.6 9.3-2 14-.9 9.4-1.2 18.9-1.1 28.3.1 9.5.5 18.9 1.1 28.3.6 9.6 1.5 19.1 2.6 28.4z"/>
    </g>

    <g id="white-petals">
        <path class="st2" d="M210.1 211.1s-44.9-21.5-53.9-43.4-7.3-31.1-7.3-31.1-1.4-24.3 15.5-43.1 39.7-8.2 44.5-7.2c4.8 1 15.2 6.8 29 1.4s33.1-2.4 38.7 1.4c5.5 3.8 16.9 7.5 19.7 23.6s5.5 38.6-4.5 53c-10 14.4-14.2 26.7-49 45.1s-32.7.3-32.7.3z"/>
        <path class="st4" d="M210.1 211.1c-7.6-3.8-15.1-8-22.3-12.6-7.2-4.6-14.1-9.7-20.3-15.6-3.1-3-6-6.1-8.4-9.7-1.2-1.8-2.2-3.7-3-5.6-.8-2-1.6-4-2.3-6-1.4-4-2.7-8.1-3.7-12.3-.5-2.1-.9-4.2-1.1-6.3-.2-2.1-.4-4.3-.1-6.4-.2-7.5 1.1-14.9 3.5-22 1.1-3.6 2.7-7 4.4-10.3l1.4-2.4.7-1.2.8-1.1 1.6-2.3c.6-.7 1.2-1.4 1.8-2.2 2.3-2.9 5.1-5.5 8.2-7.6 1.6-1 3.2-1.9 4.9-2.6 1.7-.7 3.5-1.3 5.3-1.7 3.7-.8 7.4-1 11.2-.7 3.7.3 7.4 1.1 11 2.2 1.8.5 3.6 1.1 5.4 1.6 1.8.4 3.6 1.1 5.4 1.6 3.5 1.1 7.2 1.9 10.9 2 3.7.1 7.4-.5 10.9-1.7l2.6-.9 2.7-.9c1.8-.5 3.6-.9 5.5-1.2 3.7-.6 7.5-.7 11.2-.6 3.7.2 7.5.6 11.1 1.5 1.8.4 3.6 1 5.3 1.7.9.4 1.7.9 2.5 1.4.8.5 1.6 1 2.4 1.4 3.2 1.8 6.5 3.8 9.1 6.5 2.7 2.6 4.8 5.8 6.1 9.3 1.4 3.5 1.9 7.3 2.5 10.9 1.1 7.4 1.9 14.8 1.8 22.3-.2 7.4-1.2 15-4.6 21.8-1.6 3.4-4 6.3-6 9.5-2 3.1-4.1 6.3-6.3 9.2-4.4 6-9.8 11.3-15.7 15.9-5.9 4.6-12.3 8.5-18.8 12.2l-4.9 2.7c-1.7.9-3.3 1.7-5 2.5-3.4 1.6-6.8 3.1-10.4 4.2-1.8.5-3.6 1-5.4 1.3-1.8.3-3.7.4-5.6.1-1.8-.3-3.7-1.1-4.9-2.6-1.1-1.5-1.6-3.5-1.4-5.3zm0 0c-.1 1.9.4 3.8 1.5 5.2 1.2 1.4 3 2.3 4.8 2.5 1.8.3 3.7.2 5.6-.1 1.8-.3 3.6-.8 5.4-1.3 3.6-1.1 7-2.6 10.4-4.2 1.7-.8 3.3-1.7 5-2.5l4.9-2.7c6.5-3.7 12.8-7.6 18.7-12.2 5.9-4.5 11.2-9.9 15.6-15.9 2.2-3 4.2-6.1 6.3-9.3 2-3.2 4.3-6.1 5.9-9.5 3.3-6.7 4.3-14.2 4.5-21.6.1-7.4-.6-14.9-1.8-22.2-.6-3.7-1.1-7.4-2.4-10.8-1.3-3.4-3.4-6.7-6-9.2-2.6-2.6-5.8-4.6-9.1-6.4-1.6-.9-3.1-2.1-4.8-2.8-1.7-.7-3.5-1.3-5.3-1.7-3.6-.9-7.3-1.3-11-1.5-3.7-.2-7.4 0-11.1.5-1.8.3-3.7.6-5.4 1.2-.9.2-1.8.5-2.7.8l-2.6.9c-3.5 1.2-7.3 1.8-11 1.7-3.8-.1-7.5-.9-11-2-1.8-.5-3.5-1.2-5.3-1.6-1.8-.5-3.6-1.1-5.4-1.6-3.6-1-7.2-1.8-10.9-2.2-3.7-.3-7.5-.1-11.1.7-1.8.4-3.6 1-5.3 1.7-1.7.7-3.4 1.6-4.9 2.6-3.1 2-5.9 4.6-8.2 7.5-.6.7-1.2 1.4-1.8 2.2l-1.6 2.3-.8 1.1-.7 1.2-1.4 2.4c-1.7 3.3-3.3 6.7-4.4 10.2-2.3 7.1-3.6 14.5-3.5 22-.3 2.1-.1 4.3.1 6.4.2 2.1.6 4.2 1.1 6.3.9 4.2 2.2 8.3 3.6 12.3.7 2 1.5 4 2.3 6 .9 2 1.8 3.9 3 5.6 2.3 3.6 5.3 6.7 8.3 9.7 6.2 5.9 13.1 11 20.3 15.6 7.1 4.6 14.5 8.8 22.2 12.7z"/>
        <path class="st2" d="M240.5 213s40.8-25.3 70.2-18.7c29.4 6.6 37.2 5.8 46.1 29.4s-4.4 41.5-19.7 55.5c-15.3 14-16.4 36.6-17.8 39.9-1.4 3.3-7.8 25.6-36.9 29.1S233.3 332 230.2 321c-3.1-11-11.9-36.8-6.9-75.6s17.2-32.4 17.2-32.4z"/>
        <path class="st4" d="M240.5 213c8.4-5 17.3-9.3 26.4-12.8 9.2-3.4 18.7-6.1 28.5-6.9 4.9-.4 9.8-.2 14.6.8l14.4 3.1c4.8 1.1 9.6 2.2 14.1 4 4.6 1.8 8.6 4.9 11.5 8.9 2.8 4 4.9 8.5 6.6 13.1 1.7 4.6 2.9 9.4 3 14.3.2 4.9-.7 9.8-2.3 14.5-1.7 4.6-4.1 8.9-7 12.9-2.9 4-6.2 7.6-9.7 11.1-1.7 1.7-3.6 3.4-5.3 5.1-.9.8-1.7 1.8-2.4 2.7-.4.5-.8.9-1.1 1.4l-1 1.5c-2.8 4-4.9 8.5-6.6 13.1-1.7 4.6-2.8 9.4-3.7 14.2-.2 1.2-.4 2.4-.7 3.6-.1.6-.3 1.2-.5 1.8l-.7 1.7c-.9 2.3-1.9 4.5-3.2 6.6-1.2 2.1-2.7 4.1-4.2 6-.8.9-1.6 1.8-2.5 2.7l-1.4 1.3c-.5.4-.9.8-1.4 1.2-3.8 3.1-8.2 5.5-12.9 7.1l-.9.3-.9.2-1.8.5-1.8.5-1.8.3-3.6.6-3.7.3c-.6 0-1.2.1-1.8.1h-1.8c-1.2 0-2.5 0-3.7-.1l-3.7-.4c-.6 0-1.2-.2-1.8-.3l-1.8-.4c-4.8-1.1-9.5-2.7-13.8-5-4.3-2.3-8.3-5.3-11.8-8.7-3.5-3.5-6.6-7.4-8.2-12.1-1.4-4.7-2.7-9.4-3.9-14.2-1.2-4.8-2.1-9.6-2.8-14.4-1.4-9.7-2.1-19.5-1.7-29.3.3-9.8 1.3-19.6 3.3-29.2 1.1-4.8 2.3-9.6 4.4-14 1.2-2.1 2.4-4.3 4.2-6 .5-.4 1-.8 1.5-1.1.6-.3 1.1-.6 1.7-.7 1.3-.4 2.6-.4 3.7.1zm0 0c-1.1-.5-2.4-.5-3.6-.1-.6.1-1.1.5-1.7.7-.5.3-1 .7-1.5 1.1-1.8 1.7-3 3.8-4.2 6-2.2 4.4-3.3 9.2-4.4 14-1.9 9.6-2.9 19.4-3.2 29.2-.3 9.8.4 19.6 1.8 29.3.8 4.8 1.7 9.6 2.9 14.4 1.2 4.7 2.5 9.5 3.9 14.1 1.6 4.6 4.7 8.5 8.1 12 3.5 3.4 7.5 6.3 11.7 8.6 4.3 2.3 8.9 4 13.7 5l1.8.4c.6.1 1.2.3 1.8.3l3.6.4c1.2.1 2.4.1 3.7.1h1.8c.6 0 1.2-.1 1.8-.1l3.7-.3 3.6-.6 1.8-.3 1.8-.5 1.8-.5.9-.2.9-.3c4.6-1.5 9-3.9 12.8-7 .5-.4.9-.8 1.4-1.2l1.3-1.2c.9-.8 1.7-1.8 2.5-2.7 1.5-1.9 3-3.9 4.2-6 1.2-2.1 2.3-4.3 3.2-6.6.4-1.2.9-2.3 1.2-3.5.3-1.2.5-2.4.7-3.6.9-4.8 2-9.6 3.7-14.2 1.7-4.6 3.8-9.1 6.6-13.1l1.1-1.5c.3-.5.8-1 1.2-1.4.8-.9 1.5-1.9 2.4-2.8 1.7-1.8 3.5-3.4 5.3-5.1 3.5-3.4 6.8-7.1 9.6-11 2.9-4 5.3-8.2 7-12.8 1.7-4.6 2.5-9.5 2.3-14.4-.1-4.9-1.3-9.7-3-14.3-1.7-4.6-3.7-9.1-6.6-13.1-2.9-4-6.9-7-11.4-8.8-4.5-1.8-9.3-2.9-14.1-4l-14.4-3.1c-4.8-1-9.7-1.2-14.6-.8-9.8.8-19.3 3.4-28.5 6.8-9.1 3.5-17.9 7.7-26.4 12.7z"/>
        <g>
            <path class="st2" d="M207.4 217.8s-27.6-22.9-65-22.6-54 12.3-52.6 51c0 0 2.5 18.4 14.6 33.7s8.7 11.7 10.7 25.1c2 13.4 22 30.9 22 30.9s18.9 16.2 42.2 8.1 34.3-45.2 34.3-45.2 7.9-43.8 7.6-59.7-13.8-21.3-13.8-21.3z"/>
            <path class="st4" d="M207.4 217.8c-5.1-4-10.7-7.4-16.5-10.4-5.8-3-11.8-5.5-18-7.4-6.2-2-12.6-3.3-19.1-4.1-1.6-.2-3.2-.4-4.9-.5l-4.9-.1c-3.3-.1-6.5 0-9.8.2-6.5.4-13 1.3-19.2 3.3-6.2 2-12 5.3-16.2 10.3-4.2 5-6.6 11.3-7.8 17.6-1.2 6.4-1.4 12.9-1.2 19.4.7 4.2 1.9 8.4 3.3 12.5s3.1 8 5.2 11.8c2 3.8 4.5 7.3 7.2 10.7 1.3 1.7 2.7 3.4 4 5.1 1.3 1.7 2.6 3.5 3.6 5.4 1 1.9 1.2 4.2 1.4 6.3.2 2.2.4 4.3.7 6.4.2 1.1.4 2.1.7 3.1.4 1 .7 2 1.1 3 .9 2 1.9 3.9 3.1 5.7 2.3 3.6 5 7 7.9 10.2 2.9 3.2 5.9 6.3 9.1 9.2 3.3 2.7 7.1 4.9 11 6.6 3.9 1.7 8.1 2.9 12.4 3.5 2.1.3 4.3.4 6.4.4l3.2-.2c.5 0 1.1-.1 1.6-.2l1.6-.3 1.6-.3 1.5-.4c1-.3 2.1-.6 3.1-.9 2-.7 3.9-1.7 5.8-2.8 3.6-2.3 6.9-5.1 9.8-8.3 2.9-3.2 5.4-6.7 7.7-10.4 4.5-7.3 8.1-15.3 10.7-23.4 1.3-7.1 2.5-14.3 3.6-21.5 1.1-7.2 2.1-14.4 3-21.6.4-3.6.8-7.2 1-10.8.2-3.6.4-7.3-.4-10.8-1.6-7.1-6.8-13.2-13.3-16.3zm0 0c6.5 3.1 11.7 9.2 13.2 16.4.8 3.6.7 7.2.4 10.9-.2 3.6-.6 7.2-.9 10.8-.8 7.2-1.8 14.4-2.9 21.6-1.1 7.2-2.3 14.3-3.5 21.5-2.6 8.2-6.2 16.2-10.7 23.6-2.3 3.7-4.8 7.2-7.7 10.4-2.9 3.2-6.2 6.1-9.9 8.4-1.9 1.1-3.8 2.1-5.9 2.8-1 .4-2.1.6-3.1.9l-1.6.4-1.6.3-1.6.3c-.5.1-1.1.2-1.6.2l-3.2.2c-2.2 0-4.3-.1-6.5-.4-4.3-.6-8.5-1.8-12.5-3.5s-7.8-3.9-11.1-6.6c-3.2-2.9-6.2-6-9.1-9.2-2.9-3.2-5.6-6.6-7.9-10.3-1.2-1.8-2.2-3.7-3.1-5.7-.5-1-.8-2-1.1-3-.2-1.1-.5-2.1-.7-3.2-.3-2.1-.5-4.3-.7-6.4-.2-2.1-.4-4.3-1.4-6.2-1-1.9-2.2-3.7-3.5-5.4-1.3-1.7-2.6-3.4-4-5.1-2.7-3.4-5.2-6.9-7.2-10.8-2.1-3.8-3.8-7.8-5.2-11.9-1.4-4.1-2.6-8.3-3.3-12.5-.2-6.5 0-13.1 1.2-19.5s3.6-12.7 7.9-17.7c4.2-5 10.1-8.4 16.3-10.4 6.2-2 12.7-2.9 19.2-3.3 3.3-.2 6.5-.3 9.8-.2l4.9.2c1.6.1 3.2.3 4.9.5 6.5.8 12.9 2.1 19.1 4.1 6.2 2 12.2 4.5 18 7.5 5.9 2.8 11.5 6.2 16.6 10.3z"/>
        </g>
    </g>
    <g id="center-flower">
        <path class="st2" d="M209.5 229.5c-5.3 0-9.5-2.4-12-6.8-1.5-2.6-1.8-4.7-.9-6.2 1-1.6 3.2-2.5 6.7-2.5h.6c-1.2-.7-2.2-1.6-2.7-2.8-.5-1.4 0-2.9 1.3-4.5 1.9-2.3 4.5-3.4 7.7-3.4s5.8 1.2 5.9 1.2l.1.1 6.8 11.7-6.3 11.9-.2.1c.1 0-3.1 1.2-7 1.2z"/>
        <path class="st5" d="M210.3 203.7c3.1 0 5.7 1.2 5.7 1.2l6.6 11.3-6.1 11.5s-3.1 1.3-7 1.3-8.6-1.3-11.5-6.6c-3.8-6.7 1.3-7.9 5.4-7.9 2.3 0 4.2.4 4.2.4s-9.4-2.1-4.5-7.9c2.1-2.6 4.8-3.3 7.2-3.3m.1-1c-3.3 0-6.1 1.2-8.1 3.6-1.5 1.8-2 3.4-1.4 5 .3.9.9 1.6 1.5 2.2-3.1.2-5.2 1.1-6.1 2.7-1 1.7-.7 3.9.9 6.7 2.6 4.6 6.9 7.1 12.4 7.1 4 0 7.2-1.3 7.4-1.3l.3-.1.2-.3 6.1-11.5.3-.5-.3-.5-6.6-11.3-.2-.3-.3-.1c-.2-.2-2.9-1.4-6.1-1.4z"/>
        <path class="st2" d="M234.1 223.3c-4.5 0-8.3-2.6-8.5-2.7l-.2-.2 1.7-16.9.4-.1c.1 0 5.4-1.1 10.1-1.1 4.1 0 6.5.7 7.4 2.3l.2.4c2.1 3.6 3.4 5.8-2.7 14-2.2 2.9-5 4.3-8.4 4.3z"/>
        <path class="st5" d="M237.5 202.9c3.1 0 6 .5 6.9 2 2.3 3.9 3.7 5.6-2.4 13.8-2.3 3.1-5.2 4.1-7.9 4.1-4.4 0-8.2-2.6-8.2-2.6l1.6-16.2c0-.1 5.3-1.1 10-1.1m0-1c-4.7 0-9.9 1-10.2 1.1l-.7.1-.1.7-1.6 16.2-.1.6.5.3c.2.1 4.1 2.8 8.8 2.8 3.5 0 6.4-1.5 8.7-4.5 6.1-8.1 5.2-10.4 2.7-14.5l-.2-.4c-1-1.6-3.5-2.4-7.8-2.4z"/>
        <path class="st2" d="M217.9 214.4c-.2-.3-5.3-6.4-6-9.7-.3-1.5 0-3.8 1.3-5.5.9-1.1 2.2-1.8 3.8-1.8 1.6 0 3.5.7 5.6 2 .8-.8 3.3-2.7 6.3-2.7 1.6 0 3 .6 4.4 1.7 1.2 1 1.9 2.3 2 3.9.3 4-3.4 8.1-3.6 8.3l-2.9 3.7-10.7.3-.2-.2z"/>
        <path class="st5" d="M228.9 197.2c1.3 0 2.7.4 4 1.6 4.9 4.2-1.6 11.4-1.6 11.4l-2.8 3.5-10.2.3s-5.2-6.3-5.8-9.5c-.5-2.3.7-6.6 4.6-6.6 1.5 0 3.3.6 5.6 2.1 0 .1 2.8-2.8 6.2-2.8m0-1c-2.8 0-5.2 1.7-6.3 2.6-2-1.2-3.9-1.9-5.5-1.9-1.7 0-3.1.7-4.2 1.9-1.5 1.8-1.8 4.3-1.4 5.9.7 3.4 5.5 9.3 6.1 9.9l.3.4h.5l10.2-.3h.5l.3-.4 2.7-3.5c.4-.4 3.9-4.6 3.7-8.6-.1-1.7-.8-3.1-2.1-4.2-1.6-1.2-3.1-1.8-4.8-1.8z"/>
        <path d="M219.7 237.2s3.6 13.2 11.7 10.5c8.1-2.7 8.1-13.4 8.1-13.4l-10.9-7.4-7.6 2.9-1.3 7.4z" fill="#f2e8e7" stroke="#d6797e" stroke-width="1.005" stroke-miterlimit="10"/>
        <path class="st2" d="M214.5 248.1c-1.7 0-4.7-.9-5.8-7-1.7-.2-7.8-1.1-8-7-.1-1.6.5-2.9 1.5-4 2.8-2.9 8.3-3.1 8.6-3.1l4.6-.4 7.6 4.2v.3c0 .5-1.2 11.4-3.2 14.2-1 1.4-3.1 2.8-5.3 2.8z"/>
        <path class="st5" d="M215.3 227.1l7.2 4s-1.1 11.3-3.1 13.9c-.9 1.3-2.9 2.6-4.9 2.6-2.3 0-4.6-1.7-5.4-6.9 0 0-7.7-.2-7.9-6.6-.2-6.4 9.6-6.6 9.6-6.6l4.5-.4m.2-1h-.3l-4.5.4c-.6 0-6.1.2-8.9 3.2-1.1 1.2-1.7 2.7-1.6 4.4.2 5.3 5 7.1 8.1 7.5 1.2 6.1 4.4 7 6.2 7 2.4 0 4.7-1.5 5.7-3 2-2.8 3.2-13.2 3.3-14.4l.1-.7-.6-.3-7.2-4-.3-.1z"/>
        <g>
            <path class="st2" d="M240.4 239.4c-4.5 0-8.1-5.6-8.3-5.8l-2.8-3.8 2.7-10.3.2-.1c.3-.1 7.1-3 10.6-3h.5c1.8.2 4.8 1.5 5.6 4.1.5 1.6.3 4.2-3.5 7.5.7 1.5 3 7.2-2 10.4-.9.6-2 1-3 1z"/>
            <path class="st5" d="M242.8 216.9h.4c3.3.3 9.3 4.5 1.5 11 0 0 3.8 6.6-1.6 10.1-.9.6-1.9.9-2.8.9-4.3 0-7.8-5.6-7.8-5.6l-2.7-3.6 2.5-9.8c.1-.1 7-3 10.5-3m0-1c-3.6 0-10.5 2.9-10.8 3l-.5.2-.1.5-2.5 9.8-.1.5.3.4 2.6 3.6c.3.5 4 6 8.7 6 1.2 0 2.3-.3 3.3-1 4.5-2.9 3.6-7.9 2.3-10.7 3.7-3.3 3.9-6 3.4-7.8-.8-2.5-3.7-4.3-6-4.5h-.6z"/>
        </g>
        <ellipse cx="223.1" cy="222.3" rx="9.8" ry="10" fill="#f2e8e7" stroke="#264564" stroke-width="1.005" stroke-miterlimit="10"/>
        <ellipse cx="222.6" cy="222.2" rx="5.4" ry="6" fill="#f2e8e7" stroke="#d2b55a" stroke-width="2.01" stroke-miterlimit="10"/>
        <circle cx="222.6" cy="222.3" fill="#dbafaf" r="1.5"/>
    </g>
</svg>