<?xml version="1.0" encoding="utf-8"?>
<!-- Generator: Adobe Illustrator 25.2.3, SVG Export Plug-In . SVG Version: 6.00 Build 0)  -->
<svg version="1.1" id="Layer_1" xmlns="http://www.w3.org/2000/svg" xmlns:xlink="http://www.w3.org/1999/xlink" x="0px" y="0px"
	 viewBox="0 0 149.9 134.4" style="enable-background:new 0 0 149.9 134.4;" xml:space="preserve">
<style type="text/css">
	.st0{fill:#E3D07F;}
	.st1{fill:#5D80A0;}
	.st2{fill:#F2E8E2;stroke:#E5B6B1;stroke-width:1.6343;stroke-linecap:round;stroke-miterlimit:10;}
	.st3{fill:none;stroke:#E5B6B1;stroke-width:1.6343;stroke-linecap:round;stroke-miterlimit:10;}
	.st4{fill:#E290A4;stroke:#7A6C65;stroke-width:0.3269;stroke-miterlimit:10;}
	.st5{fill:#F2E8E2;stroke:#7A6C65;stroke-width:0.3269;stroke-miterlimit:10;}
	.st6{fill:none;stroke:#E5B6B1;stroke-width:1.2346;stroke-linecap:round;stroke-miterlimit:10;}
</style>
<g>
	<path class="st0" d="M147.1,76.4c0,0-2.5-18.4-13.6-39.2c-5.3-10.1-14.2-17.7-21.9-22.9c-8.3-5.6-8.4-7-18.3-8.9L90.9,5
		c0,0-7-0.6-15.7,3.8S64.3,19.2,63.7,22.5c0,0.2-0.1,0.4-0.1,0.6C63.1,27,63,32.5,64.9,36c2.6,4.7,6.8,9.1,11,12.4
		c5.3,4.2,18.6,12.2,34.4,16.9C130.9,71.4,149,90,145,103.3l0.7,0.2C149.1,90.7,147.1,76.4,147.1,76.4z"/>
	<path class="st1" d="M144.9,102.9c-0.4,1.2-0.9,2.4-1.6,3.5c-8.6,13-18.4,9.9-40.7,7.9c-17.2-1.5-26.8-10-34.4-18.5
		s-9.1-11.5-8.6-22s4.9-11.4,5.1-26.5c0.1-8.8-2.2-14.6-9.1-23.3c-6.4-8-25.4-6.6-25.4-6.6s-15.8,4.3-22.4,17
		c-4.3,8.2-6.2,12.7-7,14.9c-1.2,7.9-0.7,16.1,1.5,24c0.2,0.6,0.3,1.1,0.5,1.7c6.3,21.5,36.2,48.6,61.4,54.6
		c25.2,6,66.9-1.9,76.5-15.1c2.4-3.3,4-7.2,5.1-11.3L144.9,102.9z"/>
	<path class="st2" d="M63.7,22.7c-0.5,3.9-0.6,9.4,1.3,12.8c2.6,4.7,6.8,9.1,11,12.4c5.3,4.2,18.6,12.2,34.4,16.9
		c22.5,6.7,42,28.2,33.1,41.5c-8.6,13-18.4,9.9-40.7,7.9c-17.2-1.5-26.8-10-34.4-18.5s-9.1-11.5-8.6-22s4.9-11.4,5.1-26.5
		c0.1-8.8-2.2-14.6-9.1-23.3c-3.9-5-12.7-6.3-18.8-6.7c-4.7-0.2-9.4,0.7-13.7,2.8c-5.1,2.6-11.7,7-15.4,14.1C1.1,47.1,0.2,51,0.2,51
		s3-22.3,17.4-34.3S31.1,6,43,1.8s40,0.2,48,2.9c0,0-7-0.6-15.7,3.8S64.4,18.8,63.8,22.1C63.7,22.3,63.7,22.5,63.7,22.7z"/>
	<path class="st3" d="M2.2,73.3c-5-18.2-0.9-37.8,11.3-52.4c4.8-5.7,10.9-11.3,18.4-15.4C47.2-2.6,70.2,0,84.2,2.7
		c9.8,1.9,19.2,5.7,27.4,11.2c7.7,5.2,16.6,12.8,21.9,22.9C144.7,57.7,147.2,76,147.2,76s3.4,24.9-6.6,38.5
		c-9.6,13.2-51.3,21.1-76.5,15.1C39,123.7,9,96.6,2.7,75C2.5,74.5,2.4,73.9,2.2,73.3z"/>
	<g>
		<path class="st4" d="M58.4,16.9c0,0,3.6-5.9,3.5-10c0-4.2-0.8-5.5-3.4-5.4c-2.4,0.1-2.9,3.8-2.7,5.8
			C56.1,11.6,58.4,16.9,58.4,16.9z"/>
		<path class="st5" d="M58.6,17.1c0,0,6.4-0.5,9.4-2.8c3-2.3,3.4-3.7,1.8-5.6c-1.6-1.9-4.5-0.1-5.8,1.1C61,12.4,58.6,17.1,58.6,17.1
			z"/>
		<path class="st4" d="M58.6,17.4c0,0,5.1,4.6,9.3,5.4c4.2,0.8,5.6,0.3,6-2.2c0.4-2.4-3.2-3.5-5.2-3.8
			C64.4,16.2,58.6,17.4,58.6,17.4z"/>
		<path class="st5" d="M58.6,17.4c0,0-0.6,7.1,1.3,11.1c1.9,4,3.2,4.9,5.5,3.8c2.2-1.1,0.9-4.9-0.1-6.7C63,21.5,58.6,17.4,58.6,17.4
			z"/>
		<path class="st4" d="M58.4,17.3c0,0-5.1,3.6-6.4,7c-1.2,3.4-0.9,4.8,1.6,5.6c2.3,0.8,3.8-2.2,4.3-3.8
			C58.9,22.4,58.4,17.3,58.4,17.3z"/>
		<path class="st5" d="M58.2,17.2c0,0-5.9-1.7-9.3-0.5c-3.4,1.2-4.1,2.3-3.2,4.6c0.9,2.3,4,1.6,5.6,0.9
			C54.7,20.8,58.2,17.2,58.2,17.2z"/>
		<path class="st4" d="M58.3,17.2c0,0-2.1-6.9-5.4-10c-3.3-3.1-4.9-3.4-6.6-1.6c-1.6,1.8,1,4.9,2.7,6.2
			C52.5,14.9,58.3,17.2,58.3,17.2z"/>
	</g>
	<path class="st3" d="M143.7,108.1c0,0-27.3,38.9-96.5,5.1c-15.1-7.4-22.8-18.3-28.3-26.5C14.3,79.9,10,72.1,8.7,64
		c0,0-4.9-16.5,4.7-30.3s23.3-11.1,26.8-9.9c3.4,1.2,11,6.8,11.8,15c0.7,8.2-1.7,16-7.9,20.8S24,64,18.1,52.8s-0.6-23.7-0.6-23.7"/>
	<path class="st6" d="M145.9,97.3c0,0-4.2-47-30.3-76.9c0,0-8.1-11.1-22.7-12S75.5,21,78.2,27.2c2.7,6.3,5.9,11.1,15.9,11.8
		s17.6-6.7,16.4-13.7c-1.2-7-8.4-12.6-8.4-12.6s-4.3-3.5-11.6-4.2"/>
</g>
</svg>
