<?xml version="1.0" encoding="utf-8"?>
<!-- Generator: Adobe Illustrator 25.2.3, SVG Export Plug-In . SVG Version: 6.00 Build 0)  -->
<svg version="1.1" id="Layer_1" xmlns="http://www.w3.org/2000/svg" xmlns:xlink="http://www.w3.org/1999/xlink" x="0px" y="0px"
	 viewBox="0 0 227.2 272.3" style="enable-background:new 0 0 227.2 272.3;" xml:space="preserve">
<style type="text/css">
	.st0{fill:#F2E8E2;}
	.st1{fill:#E0ADB5;}
	.st2{fill:#E3D07F;stroke:#A69357;stroke-width:1.1439;stroke-miterlimit:10;}
	.st3{fill:#99ADB7;}
	.st4{fill:#4C6977;}
	.st5{fill:#E5B6B1;}
	.st6{fill:#E3D07F;}
	.st7{fill:#A69357;}
</style>
<g>
	<g>
		<path class="st0" d="M51.5,19.9c0,0,42.3-32.5,102-9.1S222.1,128,222.1,128s3,80.2-38.3,110.1s-52.2,45.7-117.4,18.3
			S4.7,167.6,3.2,149.8S9.6,71.3,24.6,49.3C39.6,27.5,51.5,19.9,51.5,19.9z"/>
		<path class="st1" d="M51.4,19.8c3.3-2.4,6.8-4.4,10.4-6.2c3.6-1.8,7.3-3.4,11.1-4.8C80.5,5.9,88.4,4,96.4,2.9
			c16-2.2,32.6-0.7,48.1,4c1.9,0.6,3.9,1.2,5.8,1.9l2.9,1c1,0.3,1.9,0.8,2.8,1.2l2.8,1.2c0.9,0.4,1.8,0.9,2.7,1.4l2.7,1.4
			c0.9,0.5,1.7,1.1,2.6,1.6c6.9,4.3,13.1,9.8,18.5,15.8c5.5,6.1,10.1,12.8,14.2,19.8c4.1,7.1,7.5,14.5,10.4,22
			c2.9,7.6,5.4,15.3,7.5,23.1c2.1,7.8,3.8,15.8,5,23.8c0.3,2,0.6,4,0.8,6c0.1,1.1,0.1,2.1,0.1,3.1l0,3c-0.1,4.1-0.2,8.1-0.5,12.1
			c-0.5,8.1-1.5,16.1-2.9,24.1c-1.4,8-3.3,15.9-5.8,23.6c-2.5,7.7-5.7,15.2-9.7,22.3c-4,7.1-9.1,13.6-15.2,19.1l-1.1,1l-1.2,0.9
			l-2.4,1.9l-4.9,3.6l-9.8,7.2c-6.5,4.7-13.1,9.5-20.2,13.5c-7.1,4-14.8,6.9-22.9,7.8c-4,0.5-8.1,0.5-12.2,0.2c-4-0.3-8-1-12-1.8
			c-7.9-1.7-15.6-4.2-23.2-7c-7.6-2.8-15.1-5.8-22.3-9.5c-7.2-3.7-14-8.2-20.2-13.4c-6.2-5.3-11.6-11.4-16.2-18.2l-0.9-1.3l-0.8-1.3
			l-1.6-2.6L16,213l-0.7-1.3l-0.7-1.4c-1.9-3.6-3.4-7.4-4.8-11.2c-2.7-7.7-4.5-15.7-5.6-23.7c-0.6-4-1-8.1-1.2-12.1
			c-0.3-4-0.4-8.1-0.6-12.1c-0.4-4-0.3-8.2-0.1-12.2c0.2-4.1,0.5-8.1,0.9-12.1c0.8-8,2-16.1,3.5-24c1.5-8,3.2-15.8,5.4-23.6
			c2.2-7.8,4.7-15.5,8.2-22.8l1.4-2.7c0.5-0.9,1-1.8,1.5-2.6c1.1-1.7,2.3-3.4,3.4-5c2.4-3.3,4.8-6.5,7.4-9.6
			c2.6-3.1,5.3-6.1,8.2-8.9C45.1,24.8,48.1,22.1,51.4,19.8z M51.6,20c-3.3,2.3-6.3,5-9.1,7.9c-2.9,2.8-5.5,5.8-8.1,9
			c-2.6,3.1-5,6.3-7.3,9.6c-1.2,1.7-2.3,3.3-3.4,5c-0.5,0.9-1,1.8-1.5,2.6l-1.3,2.7c-3.4,7.3-5.7,15-7.8,22.8
			c-2,7.8-3.6,15.7-4.9,23.6c-1.3,7.9-2.3,15.9-3.1,23.9c-0.4,4-0.7,8-0.8,12c-0.2,4-0.2,8,0.2,12c0.5,8.1,0.8,16.1,1.9,24
			c1.1,7.9,2.8,15.8,5.4,23.3c1.3,3.8,2.8,7.5,4.5,11.1l0.6,1.4l0.7,1.3l1.4,2.6l1.5,2.6l0.8,1.3L22,220c4.4,6.7,9.6,12.8,15.7,18.1
			c6,5.3,12.7,9.8,19.8,13.6c7.1,3.7,14.6,6.7,22.2,9.6c7.5,2.8,15.2,5.3,23.1,7c3.9,0.8,7.9,1.4,11.9,1.8c4,0.3,8,0.2,12-0.2
			c4-0.5,7.9-1.4,11.7-2.8c3.8-1.4,7.4-3.1,10.9-5.1c7-4,13.4-8.8,19.9-13.6l9.7-7.3l4.9-3.6l2.3-1.9l1.2-0.9l1.1-1
			c5.9-5.4,10.8-11.8,14.6-18.8c3.9-7,7-14.4,9.4-22.1c2.4-7.6,4.3-15.5,5.6-23.4c1.4-7.9,2.3-15.9,2.8-23.9c0.3-4,0.4-8,0.4-12l0-3
			c0-1,0-2-0.1-2.9c-0.2-2-0.5-4-0.8-5.9c-2.5-15.8-6.5-31.5-12.3-46.4c-5.8-14.9-13.5-29.2-24-41.3c-5.3-6-11.2-11.4-17.9-15.7
			c-6.7-4.4-14.1-7.4-21.8-9.9c-15.3-4.9-31.6-6.7-47.6-4.8c-8,0.9-15.9,2.9-23.4,5.6c-3.8,1.4-7.5,3-11.1,4.7
			C58.3,15.6,54.8,17.6,51.6,20z"/>
	</g>
	<g>
		<path class="st2" d="M109.2,133.9c-3.2-0.3-6.5,0.4-9.3,2c-7.4,4.3-23,14.6-31,29.2c-10.7,19.6-14.7,21.1-16.4,37.9
			s2.4,42.8,20.2,52.7c17.8,9.9,29.7,13.4,38.3,12.7s27.1-20.1,32.3-34c5.2-13.9,8.5-39.6,2.8-55.3c-5.7-15.7-16.2-39.1-34.5-44.6
			C111.6,134.4,111.1,134.1,109.2,133.9z"/>
		<g>
			<path class="st3" d="M107,136.1c0,0-22.2,10.4-33.4,56.1s18.7,68.2,18.7,68.2s17.4,5.1,28.2-5.1s18.7-52.1,9.5-74.5
				S117.2,141.4,107,136.1z"/>
			<path class="st4" d="M107,136.1c-2.5,1.4-4.9,3.3-7,5.3c-0.6,0.5-1,1-1.6,1.5c-0.5,0.5-1,1-1.5,1.6l-1.4,1.7
				c-0.5,0.5-1,1.1-1.4,1.7c-3.6,4.6-6.8,9.6-9.4,14.9c-0.7,1.3-1.3,2.6-1.9,4c-0.6,1.3-1.2,2.7-1.8,4l-1.6,4.1l-0.8,2.1L78,179
				l-1.4,4.2c-0.5,1.4-0.8,2.8-1.2,4.2l-1.2,4.2c-0.4,1.4-0.7,2.9-1,4.3c-1.2,5.7-1.8,11.6-1.8,17.5c0,2.9,0.3,5.9,0.6,8.8
				c0.4,2.9,1,5.8,1.8,8.6c1.6,5.6,3.9,11.1,7.1,16.1c1.6,2.5,3.3,4.9,5.2,7.1c1.9,2.2,4,4.3,6.2,6.2l-0.1,0
				c3.2,0.8,6.5,1.2,9.7,1.2c3.3,0,6.6-0.4,9.7-1.4c3.1-1,6-2.6,8.3-4.9c2.3-2.2,3.9-5.1,5.3-8.1c2.7-5.9,4.5-12.4,5.8-18.8
				c1.2-6.5,2-13,2.2-19.6c0.2-6.6-0.2-13.2-1.5-19.6c-0.6-3.2-1.6-6.3-2.9-9.4c-1.2-3.1-2.4-6.2-3.5-9.3c-2.3-6.2-4.4-12.5-7-18.5
				c-1.3-3-2.7-6-4.5-8.8C112.2,140.2,109.9,137.7,107,136.1z M107,136c3,1.5,5.3,4,7.2,6.7c1.9,2.7,3.4,5.7,4.8,8.7
				c2.7,6.1,4.9,12.3,7.3,18.5c1.2,3.1,2.4,6.2,3.6,9.2c1.3,3,2.4,6.3,3,9.5c1.4,6.5,1.8,13.2,1.6,19.9c-0.2,6.6-1,13.3-2.3,19.8
				c-1.3,6.5-3.1,13-6,19c-1.4,3-3.1,6-5.6,8.3c-2.5,2.3-5.5,3.9-8.7,4.9c-3.2,1-6.6,1.4-9.9,1.3c-3.3-0.1-6.6-0.5-9.9-1.3l0,0l0,0
				c-2.3-1.9-4.4-4-6.3-6.3c-1.9-2.3-3.6-4.7-5.2-7.2c-1.5-2.5-3-5.1-4.2-7.8c-1.2-2.7-2.2-5.5-3.1-8.3c-0.8-2.8-1.5-5.7-1.9-8.7
				c-0.4-2.9-0.7-5.9-0.8-8.8c-0.2-5.9,0.4-11.9,1.6-17.7c0.3-1.4,0.6-2.9,1-4.3l1.2-4.3c0.4-1.4,0.7-2.9,1.2-4.3l1.4-4.2l0.7-2.1
				l0.8-2.1l1.6-4.1c0.6-1.4,1.2-2.7,1.8-4c0.6-1.3,1.2-2.7,2-4c2.7-5.3,6-10.2,9.7-14.8c0.9-1.2,2-2.2,2.9-3.3
				c0.5-0.5,1.1-1,1.6-1.6c0.5-0.5,1-1,1.6-1.5C102,139.2,104.3,137.4,107,136z"/>
		</g>
		<path class="st5" d="M107,136.1c0,0-28.9,23.1-26,60.8c1.9,24.3,15.9,31.4,25.5,33.3c9.2,1.8,18.5-3.5,21.2-12.6
			c0-0.1,0.1-0.2,0.1-0.3c3.3-11.4,2.9-31.8-0.8-43.6C123.4,161.7,117.6,149,107,136.1z"/>
		<path class="st0" d="M107,136.1c0,0,10.1,13.6,8.9,24.1s-4.6,12.7-8.9,13.3c-7,1.1-12.3-9.2-9.9-18S107,136.1,107,136.1z"/>
	</g>
	<g>
		<g>
			<path class="st6" d="M105.2,133.9c0,0-23.9-33.7-26-69.7s5.7-44.3,12.7-53c7-8.8,32.2-8.8,42.1-0.8c9.9,8,25,19.9,25.5,46.1
				c0.5,26.3-1.8,37.1-14.3,50.1s-36.1,28.1-36.1,28.1l-2.6,1.9L105.2,133.9z"/>
			<path class="st7" d="M105.1,134c-3.9-5.7-7.4-11.8-10.6-18c-3.2-6.2-6.1-12.5-8.5-19.1c-2.4-6.5-4.3-13.3-5.7-20.1l-0.9-5.2
				c-0.2-1.7-0.3-3.5-0.5-5.2c-0.1-0.9-0.2-1.7-0.2-2.6l-0.1-2.6c-0.1-1.7-0.2-3.5-0.2-5.2c-0.1-7,0.2-14,1.5-20.9
				c0.7-3.4,1.5-6.8,2.9-10.1c1.3-3.2,3.1-6.3,5.2-9.1c1-1.4,2.1-2.8,3.2-4.1c0.5-0.7,1.1-1.4,1.8-1.9c0.6-0.6,1.4-1.1,2.1-1.6
				c3-1.8,6.5-2.8,9.9-3.4c3.5-0.6,7-0.7,10.5-0.5c3.5,0.2,7,0.7,10.3,1.7c3.3,1,6.7,2.5,9.3,4.8c2.7,2.2,5.4,4.4,8,6.8
				c5.1,4.8,9.4,10.5,12.3,17c0.4,0.8,0.7,1.6,1,2.4c0.3,0.8,0.6,1.6,0.9,2.5c0.5,1.7,1.1,3.4,1.4,5.1l0.5,2.6l0.4,2.6
				c0.3,1.7,0.3,3.5,0.4,5.2c0.3,7,0.2,14-0.4,20.9c-0.3,3.5-0.8,7-1.8,10.4c-0.9,3.4-2.2,6.7-4,9.8c-1.7,3.1-3.9,5.9-6.2,8.5
				c-2.3,2.6-4.9,5-7.5,7.3c-10.5,9.2-22.2,16.9-33.7,24.7l-0.1,0l0-0.1L105.1,134z M105.2,133.9l1.3,2.7l-0.1,0
				c11.5-7.8,23-15.8,33.2-25.2c2.5-2.4,5-4.8,7.3-7.4c2.3-2.6,4.3-5.4,6-8.4c1.7-3,2.9-6.2,3.8-9.5c0.9-3.3,1.4-6.8,1.7-10.2
				c0.6-6.9,0.6-13.9,0.4-20.8c-0.1-1.7-0.1-3.4-0.4-5.2l-0.3-2.6l-0.5-2.5c-0.3-1.7-0.9-3.3-1.3-5c-0.3-0.8-0.6-1.6-0.9-2.4
				c-0.3-0.8-0.6-1.6-1-2.4c-2.8-6.3-6.9-12-11.9-16.8c-2.5-2.4-5.1-4.7-7.8-6.9c-2.6-2.3-5.7-3.8-9.1-4.8c-3.3-1-6.8-1.5-10.2-1.7
				c-3.5-0.2-6.9-0.1-10.4,0.5c-3.4,0.5-6.8,1.5-9.8,3.2c-1.5,0.9-2.7,2.1-3.8,3.5c-1.1,1.4-2.2,2.7-3.2,4.1c-2.1,2.8-3.8,5.8-5,9
				c-1.3,3.2-2.1,6.6-2.7,10C79.4,42,79.2,49,79.4,55.9c0.2,6.9,0.6,13.9,1.9,20.7c1.3,6.8,3.1,13.5,5.4,20.1
				C91.3,109.8,97.5,122.3,105.2,133.9z"/>
		</g>
		<g>
			<path class="st3" d="M107,135c0,0,21.7-18.9,32.1-47.5s2-44.5-4-54.3s-19.9-10.9-30.9-5.9S88.2,52.8,87.9,67.5s3.5,35.1,6.4,41.6
				C97.2,115.6,103.3,131.2,107,135z"/>
			<path class="st4" d="M107,135c4-3.7,7.7-7.9,11.1-12.2c3.5-4.3,6.7-8.8,9.6-13.4c1.5-2.3,2.8-4.7,4.2-7.1
				c1.2-2.5,2.5-4.9,3.6-7.4c0.6-1.3,1.1-2.5,1.6-3.8l1.5-3.8c0.9-2.6,1.8-5.2,2.4-7.9c1.4-5.3,2.3-10.7,2.4-16.2
				c0.1-5.5-0.6-10.9-2.3-16.1c-1.7-5.2-4.2-10.1-7.3-14.6c-1.6-2.2-3.7-3.9-6.1-5.2c-2.4-1.2-5.1-1.9-7.8-2.2
				c-5.4-0.5-11,0.5-16,2.8c-2.5,1.1-4.5,3.1-6.2,5.3c-1.7,2.2-3,4.6-4.1,7.1c-2.2,5-3.5,10.4-4.4,15.9c-0.4,2.7-0.7,5.5-0.8,8.2
				c-0.1,2.7-0.1,5.5,0,8.2c0.2,5.5,0.8,11,1.6,16.4c0.8,5.4,1.8,10.9,3.3,16.2c0.4,1.3,0.8,2.6,1.3,3.9l1.6,3.8l3.2,7.6
				c1.1,2.5,2.2,5.1,3.4,7.5C104,130.4,105.3,132.9,107,135z M107,135.1c-1-1-1.7-2.2-2.5-3.4c-0.7-1.2-1.4-2.4-2-3.6
				c-1.3-2.5-2.5-5-3.6-7.5l-3.3-7.6l-1.7-3.8c-0.6-1.3-1-2.6-1.4-3.9C90.9,100,89.9,94.5,89,89c-0.8-5.5-1.4-11-1.5-16.5
				c-0.2-5.5,0.2-11.1,1.2-16.6c0.5-2.7,1.1-5.4,1.8-8.1c0.3-1.3,0.8-2.6,1.2-4l0.7-1.9c0.2-0.7,0.5-1.3,0.8-1.9
				c1.1-2.6,2.5-5,4.2-7.2c1.7-2.2,3.7-4.2,6.3-5.4c5-2.4,10.7-3.5,16.2-3c2.8,0.3,5.5,0.9,8.1,2.2c2.5,1.2,4.8,3,6.5,5.3
				c3.2,4.6,5.8,9.5,7.6,14.8c1.7,5.3,2.5,10.9,2.5,16.5c0,5.6-1,11.1-2.4,16.5c-0.7,2.7-1.6,5.3-2.5,8c-1,2.6-2,5.2-3.2,7.7
				c-1.1,2.5-2.5,5-3.7,7.4c-1.4,2.4-2.8,4.8-4.3,7.1C122.4,119.1,115.3,127.7,107,135.1z"/>
		</g>
		<path class="st5" d="M108.8,131.5c0,0,22.3-21.5,24.7-48.7S117.3,58.6,112.1,60c-5.2,1.4-15.5,11.2-17.1,25.6
			c-1,8.7,0.5,19.6,1.9,26.9c0.9,4.9,2.6,9.6,5.1,13.9l4.4,7.6L108.8,131.5z"/>
		<path class="st0" d="M106.9,133.9c0,0-9.7-12.7-8.2-22.2s5-11.4,9.3-11.9c7-0.8,12,8.7,9.3,16.6S106.9,133.9,106.9,133.9z"/>
	</g>
</g>
</svg>
