<svg version="1.1" id="Layer_1" xmlns="http://www.w3.org/2000/svg" x="0" y="0" viewBox="0 0 298.1 212.2" xml:space="preserve" preserveAspectRatio="xMidYMid meet"><style>.st1{fill:#f2e8e2}.st2{fill:#7a6c65}</style><path d="M3.9 76.8s9.8-35.5 52.2-57.9S154.2.1 161 .5c6.8.4 57.3 5.7 86.6 24.5s39.9 38.3 45 51.8c5.1 13.5 4.1 33.3-1.7 49.4-6.4 17.5-13.6 33.5-36.1 50.2s-46.9 24.6-69.2 29c-27.2 5.3-40.7 4.9-78.1-3.3s-63.2-25.7-80.2-42.8-25.6-41-26.3-45.4C-.3 106.1-1.2 91 3.9 76.8z" fill="#e07636" stroke="#f4bb42" stroke-width="1.909" stroke-miterlimit="10"/><path class="st1" d="M142.7 98.3s-12.9 28.4-13.5 49.9c-.6 21.6-1.8 28.7 2.8 41.1s11.7 14.8 15.7 17.1c4 2.4 13.8-1.5 20-13.3 6.1-11.8.6-34.3 0-36-.7-1.8-25-58.8-25-58.8z"/><path class="st2" d="M142.7 98.3c-.9 2.3-1.9 4.7-2.8 7-.9 2.4-1.7 4.8-2.6 7.2-1.7 4.8-3.1 9.7-4.4 14.6-1.3 4.9-2.3 9.9-2.9 14.9-.6 5-.6 10.1-.8 15.2-.2 5.1-.5 10.1-.4 15.2.1 2.5.3 5.1.7 7.6.4 2.5 1.1 4.9 1.9 7.4 1.6 4.8 3.9 9.5 7.5 13 1.8 1.8 3.9 3.2 6.1 4.4l1.7.9c.6.3 1.1.6 1.7.9 1.1.4 2.4.4 3.6.1 2.4-.5 4.7-1.7 6.7-3.2 2-1.5 3.8-3.3 5.3-5.3 3.1-4 5.2-8.7 5.6-13.7.6-5 .4-10.1-.2-15.1-.3-2.5-.7-5-1.2-7.5-.3-1.2-.5-2.5-.8-3.7-.1-.3-.2-.6-.2-.9l-.4-.9-.7-1.7c-3.9-9.3-7.8-18.6-11.6-28l-11.8-28.4zm0-.1l12.1 27.8c4.1 9.3 8.2 18.7 12.2 28.2l.8 1.8.4.9c.1.3.2.6.3 1 .3 1.2.6 2.5.9 3.7.5 2.5.9 5 1.2 7.6.6 5.1.8 10.2.1 15.3-.1 1.3-.5 2.5-.7 3.8l-.6 1.9c-.2.6-.4 1.2-.7 1.8-1 2.4-2.4 4.5-4 6.6-1.6 2-3.4 3.9-5.5 5.4-2.1 1.5-4.4 2.8-7 3.2-1.3.2-2.6.3-3.9-.2-.6-.3-1.2-.6-1.7-.9l-1.7-.9c-2.2-1.2-4.4-2.7-6.2-4.5-3.6-3.7-5.9-8.4-7.5-13.2-1.7-4.8-2.6-9.9-2.8-15-.2-5.1 0-10.2.1-15.3.2-5.1.1-10.2.8-15.2.6-5.1 1.7-10.1 3-15s2.9-9.8 4.6-14.5c.9-2.4 1.8-4.8 2.7-7.1 1.1-2.5 2-4.8 3.1-7.2z"/><path class="st1" d="M141.3 97.9s-41.8 2.4-64.5 12.4c-15.7 6.9-27.1 17.8-32.7 23.8-2.8 3.1-5 6.6-6.4 10.5-1.9 5.4-3.7 13.2-.7 18.4 4.9 8.6 25.6 6.9 33.3 4.5 8.4-2.6 33.8-21.1 40.3-28.8s30.7-40.8 30.7-40.8z"/><path class="st2" d="M141.3 97.9c-11.3 1-22.7 2.4-33.9 4.4-5.6 1-11.2 2.2-16.7 3.7s-10.9 3.3-16 5.7c-5.1 2.4-10.1 5.3-14.7 8.7-4.6 3.3-9 7-13.1 11-2 2-4 4.1-5.6 6.4a30.4 30.4 0 00-3.7 7.7c-.9 2.7-1.6 5.5-1.8 8.3-.3 2.8-.1 5.7 1.1 8.3 1.1 2.6 3.7 4.2 6.3 5.2 2.6 1 5.5 1.4 8.3 1.6 2.8.2 5.7.2 8.5-.1 2.8-.2 5.7-.6 8.4-1.2 2.8-.6 5.3-1.9 7.8-3.3s4.9-2.9 7.3-4.5c4.7-3.2 9.4-6.5 13.9-10 2.3-1.7 4.5-3.5 6.6-5.4 2.1-1.9 4.3-3.8 6.2-5.9 3.7-4.3 7.1-8.9 10.6-13.4l20.5-27.2zm.1 0c-6.6 9.4-13.4 18.6-20.2 27.7-3.4 4.6-6.8 9.2-10.5 13.6-1.9 2.2-4.1 4.1-6.2 6-2.2 1.9-4.4 3.7-6.7 5.4-4.5 3.5-9.2 6.9-14 10-2.4 1.6-4.8 3.1-7.4 4.5-1.3.7-2.5 1.4-3.9 1.9-1.3.6-2.7 1-4.1 1.4-5.6 1.2-11.4 1.6-17.2 1.2-2.9-.2-5.7-.7-8.5-1.8-1.4-.5-2.7-1.2-3.8-2.1-1.2-.9-2.1-2.1-2.7-3.4-1.2-2.7-1.3-5.7-1-8.5.3-2.9 1-5.7 1.9-8.4.9-2.7 2.2-5.3 3.8-7.7 1.6-2.4 3.6-4.5 5.6-6.5 8.1-8.1 17.3-15.1 27.6-20.2 5.2-2.5 10.6-4.4 16.2-5.8 5.5-1.5 11.1-2.6 16.8-3.6 11.5-1.9 22.8-3.2 34.3-3.7z"/><path class="st1" d="M145.2 97.8s27 42.2 32.3 50.5 22.7 29.8 27 31.6c4.3 1.8 12 9.2 16.9 9.7 4.9.6 19.4-3.2 23.4-10.3 4-7.1 9.8-17.4 3.1-33.7s-50.4-30.7-58.1-33.1c-7.8-2.3-44.6-14.7-44.6-14.7z"/><path class="st2" d="M145.2 97.9l20.4 31.3 10 15.6c1.7 2.6 3.3 5.2 5.1 7.7 1.8 2.5 3.7 5 5.6 7.4 3.8 4.9 7.8 9.7 12 14.3 1.1 1.1 2.1 2.3 3.3 3.3l.8.8.9.7c.6.5 1.2.8 2 1.2 2.8 1.5 5.2 3.4 7.8 5.2 1.3.9 2.6 1.7 3.9 2.5 1.3.7 2.8 1.4 4.3 1.7 1.5.2 3.1 0 4.6-.2 1.5-.2 3-.6 4.5-1 3-.9 5.9-2 8.5-3.6 1.3-.8 2.6-1.7 3.7-2.8 1.1-1.1 1.9-2.3 2.7-3.7 1.5-2.7 2.9-5.5 3.8-8.4 1-2.9 1.5-6 1.5-9.1 0-3.1-.4-6.1-1.2-9.1-.4-1.5-.9-3-1.5-4.4-.5-1.5-1.2-2.8-2-4.1-1.7-2.5-4-4.6-6.4-6.6-2.4-1.9-5-3.7-7.6-5.3-5.3-3.2-10.8-6-16.5-8.5-5.7-2.5-11.4-4.8-17.3-6.9-2.9-1.1-5.9-2.1-8.8-3l-8.8-3-35.3-12zm-.1-.1l35.4 11.4 8.9 2.9c3 .9 5.9 1.9 8.9 2.9 5.9 2 11.7 4.3 17.4 6.9 5.7 2.5 11.3 5.3 16.6 8.5 2.7 1.6 5.3 3.4 7.7 5.4 2.4 2 4.7 4.2 6.5 6.8.9 1.3 1.6 2.8 2.1 4.3.6 1.5 1 3 1.5 4.5.8 3 1.2 6.2 1.1 9.3-.1 3.1-.7 6.3-1.7 9.2-1 3-2.4 5.8-4 8.5-.7 1.4-1.7 2.7-2.8 3.8-1.2 1.1-2.4 2-3.8 2.8-2.7 1.6-5.6 2.7-8.6 3.6-1.5.4-3 .8-4.6 1-1.5.2-3.1.4-4.7.2-1.6-.3-3-1-4.4-1.7-1.4-.8-2.7-1.6-3.9-2.5-2.6-1.7-5-3.7-7.7-5.1-.7-.3-1.4-.7-2.1-1.2l-.9-.7-.9-.8c-1.2-1-2.3-2.2-3.3-3.3-4.3-4.5-8.3-9.3-12.2-14.1-3.9-4.9-7.6-9.9-10.9-15.2l-10-15.9-19.6-31.5z"/><path class="st1" d="M146.9 95s60.8-27 70.7-28.7c8.8-1.5 27.3-3 39.9 0 12.6 3 28 10.6 30.7 17.4 2.8 6.8 5.5 20.1-11.7 27.8-17.2 7.7-42.1 3.8-51.9 1.8-9.8-2.1-30.9-11.2-46.7-13.6-15.5-2.4-31-4.7-31-4.7z"/><path class="st2" d="M146.8 95c12.2-5.6 24.3-10.9 36.6-16.2 6.1-2.6 12.3-5.1 18.5-7.6l4.7-1.8c1.6-.6 3.1-1.1 4.7-1.7.8-.3 1.6-.5 2.4-.8.8-.3 1.6-.5 2.4-.7 1.6-.5 3.3-.6 5-.9 6.6-.8 13.3-1.2 20-1 6.7.2 13.4.7 19.8 2.7 3.2.9 6.3 2.1 9.4 3.4 3.1 1.3 6.1 2.8 8.9 4.5 2.8 1.7 5.6 3.7 7.8 6.3 1.1 1.3 1.8 2.9 2.3 4.5.5 1.6.9 3.2 1.2 4.9.3 1.7.2 3.4.1 5-.1.8-.2 1.7-.5 2.5l-.3 1.2-.5 1.2c-1.3 3.1-3.6 5.8-6.3 7.8-5.5 4-12 6.1-18.6 7.2-6.6 1.1-13.3 1.2-20 .9-6.7-.4-13.3-1.3-19.8-2.7-3.3-.7-6.5-1.8-9.6-2.8-3.2-1-6.3-2.1-9.5-3.2-6.3-2.2-12.6-4.3-19-5.9-3.2-.9-6.4-1.5-9.8-2l-9.9-1.6c-7-1.1-13.5-2.2-20-3.2zm.1 0c6.6 1 13.3 1.9 19.8 2.8l9.8 1.4c3.3.5 6.6 1.1 9.8 1.9 6.5 1.6 12.8 3.6 19.2 5.7 6.3 2 12.6 4.4 19 5.9 6.5 1.4 13.1 2.2 19.7 2.6 6.6.4 13.3.3 19.8-.8 6.5-1 13-3.1 18.3-6.9 2.6-1.9 4.9-4.4 6.2-7.5l.5-1.1.3-1.2c.3-.8.3-1.6.5-2.4.2-1.6.2-3.3 0-4.9-.2-1.6-.6-3.2-1.1-4.8-.5-1.6-1.1-3.1-2.2-4.4-2.1-2.5-4.8-4.5-7.6-6.3-5.7-3.5-11.9-6-18.2-7.9-6.4-1.9-13.1-2.4-19.7-2.4s-13.3.4-19.9 1.3c-1.6.2-3.3.4-4.9.9-.8.2-1.6.4-2.4.7-.8.3-1.6.5-2.4.8-3.1 1.1-6.2 2.3-9.3 3.5-6.2 2.4-12.4 4.9-18.5 7.5-12.2 5.2-24.5 10.4-36.7 15.6z"/><g><path class="st1" d="M146.3 91.5s12.8-30.7 21.2-44.9c8.4-14.2 9.7-16.8 22.8-27.8 13.2-11 34.9-4.7 37.1-2.5s11.2 8.8 5.4 22.6-13.4 18.4-24 24.1c-10.5 5.7-24.8 9.8-32.8 14.3s-29.7 14.2-29.7 14.2z"/><path class="st2" d="M146.3 91.5c3.9-9.9 8.1-19.6 12.7-29.2 2.3-4.8 4.6-9.5 7.2-14.2 1.3-2.3 2.7-4.6 4-6.8 1.4-2.3 2.7-4.5 4.2-6.7 3-4.4 6.8-8.3 10.8-11.7 1-.9 2-1.7 3-2.6 1-.8 2-1.7 3.1-2.5.5-.4 1.1-.8 1.6-1.2l1.8-1 .9-.5.9-.4 1.9-.7c2.5-.8 5.1-1.4 7.8-1.6 1.3-.2 2.6-.2 4-.2 1.3 0 2.7 0 4 .2 2.6.2 5.3.6 7.9 1.3 1.3.3 2.6.7 3.8 1.2.6.3 1.2.6 1.8 1l1.4 1.4c1.9 1.8 3.7 4 4.7 6.4 1.1 2.5 1.5 5.2 1.3 7.9-.2 2.7-1 5.3-2 7.8s-2.3 4.8-3.7 7.1c-1.4 2.3-3.1 4.4-5 6.3-1.9 1.9-4 3.6-6.2 5.1-2.2 1.5-4.5 2.8-6.8 4.1-2.3 1.3-4.7 2.5-7.1 3.7-4.8 2.2-9.8 4.1-14.7 6-4.9 1.9-9.9 3.8-14.5 6.4-4.7 2.5-9.5 4.7-14.3 6.9-2.4 1.1-4.8 2.2-7.2 3.2-2.4 1.2-4.8 2.3-7.3 3.3zm.1-.1l14.3-6.7c4.8-2.3 9.5-4.6 14.2-7.1 4.6-2.7 9.6-4.6 14.5-6.6s9.9-3.8 14.6-6.1c2.4-1.1 4.7-2.3 7-3.6 2.3-1.3 4.6-2.6 6.8-4.1 2.2-1.5 4.2-3.1 6.1-4.9 1.8-1.8 3.5-3.9 4.9-6.1 1.4-2.2 2.6-4.5 3.7-7 1-2.4 1.8-4.9 2.1-7.5.2-2.6-.1-5.2-1.2-7.6-1-2.4-2.6-4.5-4.5-6.3l-1.4-1.4c-.5-.4-1-.7-1.6-.9-1.2-.5-2.5-.9-3.7-1.2-2.5-.7-5.1-1.1-7.8-1.4-5.2-.5-10.6-.1-15.6 1.6l-1.8.7-.9.4-.9.5-1.7 1c-.5.4-1.1.8-1.6 1.1-1.1.7-2.1 1.6-3.1 2.5-1 .9-2 1.7-3 2.6-2 1.8-3.9 3.6-5.6 5.5-1.8 1.9-3.4 4-4.8 6.2-2.9 4.4-5.5 9-8.2 13.5-2.6 4.6-5 9.3-7.3 14.1-4.9 9.5-9.2 19.3-13.5 28.8z"/></g><g><path class="st1" d="M143.4 91.9s9.1-23.6 11.1-45.6c1.9-21.9-3.2-34.8-7.2-37.6-4-2.9-11.6-6.8-20.2-4.9s-12.6 2.5-17 11.5-1.1 21.8-.2 26.8c.9 5.1 5.7 13.7 12.1 24.6 6.1 10.6 21.4 25.2 21.4 25.2z"/><path class="st2" d="M143.3 91.8c2.9-8.5 5.5-17.2 7.5-26.1 1-4.4 1.8-8.9 2.5-13.3.6-4.5 1.1-9 1.2-13.5.1-4.5 0-9-.6-13.5-.6-4.4-1.6-8.9-3.7-12.9-.5-1-1.1-2-1.9-2.8-.7-.8-1.7-1.4-2.6-2-1.9-1.2-4-2.2-6.1-2.9-4.3-1.5-8.9-1.7-13.3-.6-2.2.5-4.4 1-6.5 1.7-2.1.7-4 1.9-5.5 3.6-1.5 1.6-2.6 3.6-3.6 5.6-1 2-1.6 4.1-1.9 6.3-.7 4.4-.3 8.9.4 13.4.4 2.2.8 4.4 1.2 6.7.4 2.2 1.2 4.3 2.1 6.3 1.8 4.1 4 8.1 6.2 12l3.3 5.9c.6 1 1.2 1.9 1.7 2.9.6.9 1.2 1.9 1.9 2.8 2.6 3.7 5.6 7.1 8.6 10.5 2.9 3.4 6 6.8 9.1 9.9zm.1.1c-1.7-1.6-3.3-3.1-4.9-4.8-1.6-1.6-3.2-3.2-4.7-4.9-3.1-3.3-6.1-6.8-8.8-10.4-.7-.9-1.3-1.8-2-2.8-.6-1-1.2-1.9-1.8-2.9l-3.4-5.9c-2.3-3.9-4.5-7.9-6.3-12.1-.9-2.1-1.8-4.3-2.1-6.6-.4-2.2-.9-4.4-1.2-6.7-.7-4.5-1-9.1-.3-13.7.4-2.3 1-4.5 2.1-6.6 1-2 2.2-4 3.8-5.7 1.6-1.7 3.7-2.9 5.8-3.7 2.2-.8 4.4-1.2 6.6-1.7 4.4-1.1 9.2-.8 13.5.8 2.2.7 4.2 1.8 6.1 3 .9.6 1.9 1.2 2.7 2.1.8.8 1.4 1.8 1.9 2.8 1.1 2 1.8 4.2 2.5 6.4s1.1 4.4 1.5 6.7c.7 4.5 1 9.1.9 13.6-.1 9.1-1.6 18.1-3.7 27-2.2 9-4.9 17.6-8.2 26.1z"/></g><g><path class="st1" d="M142.1 95.3S121.5 74.6 111 66.1 82.2 39.7 58.1 39.5C34 39.2 24.4 45.1 20.7 50s-2.8 16.2 3.7 22.7c6.6 6.5 14.7 17.5 40 21.6s77.7 1 77.7 1z"/><path class="st2" d="M142.1 95.2c-4.3-4.2-8.8-8.4-13.2-12.6-4.4-4.2-8.9-8.3-13.4-12.3-9.3-7.8-18.4-16-28.9-22.1-5.2-3.1-10.8-5.5-16.7-7-1.5-.3-2.9-.7-4.4-.9-1.5-.2-3-.5-4.5-.5-1.5-.1-3-.2-4.6-.2-1.5 0-3 0-4.6.1-3 .1-6.1.4-9.1.7-3 .5-6 1-8.9 1.9-2.9.9-5.7 2-8.3 3.7-1.3.8-2.5 1.8-3.5 2.8-1 1.1-1.9 2.3-2.4 3.7-.5 1.4-.7 2.9-.8 4.4-.1 1.5 0 3 .3 4.5.5 3 1.7 5.8 3.3 8.3.9 1.2 1.8 2.3 2.9 3.4l3.2 3.3c2.1 2.1 4.4 4.2 6.8 6 2.4 1.8 5 3.4 7.7 4.8 1.4.7 2.7 1.3 4.1 1.9 1.4.6 2.8 1.1 4.2 1.6C57 92.6 63 93.8 69 94.5c12.1 1.3 24.3 1.5 36.4 1.6 12.4-.1 24.6-.4 36.7-.9zm.1.1c-12.2.9-24.4 1.3-36.6 1.5-6.1.1-12.2 0-18.3-.1-6.1-.2-12.2-.5-18.3-1.2-6.1-.7-12.1-1.8-17.9-3.8-1.4-.5-2.9-1-4.3-1.6-1.4-.6-2.8-1.2-4.2-1.9-2.7-1.4-5.3-3-7.8-4.9-2.4-1.9-4.7-4-6.8-6.1l-3.2-3.3c-1.1-1.1-2.1-2.3-3-3.5-1.7-2.6-2.9-5.5-3.3-8.6-.3-1.5-.4-3.1-.3-4.6.1-1.5.3-3.1.9-4.5.5-1.5 1.4-2.8 2.5-3.9s2.3-2.1 3.6-2.9c2.6-1.6 5.5-2.8 8.4-3.7 5.9-1.7 12-2.3 18.1-2.6 6.1-.3 12.3-.1 18.2 1.3 6 1.4 11.7 3.8 17 6.8 5.3 3 10.3 6.6 15.1 10.4 2.4 1.9 4.7 3.9 7 5.9 2.3 1.9 4.7 3.9 7 5.9 4.5 4.1 8.9 8.3 13.3 12.5 2.2 2.1 4.3 4.3 6.5 6.4 2.1 2.1 4.2 4.2 6.4 6.5z"/></g></svg>