<?xml version="1.0" encoding="utf-8"?>
<!-- Generator: Adobe Illustrator 25.2.3, SVG Export Plug-In . SVG Version: 6.00 Build 0)  -->
<svg version="1.1" id="Layer_1" xmlns="http://www.w3.org/2000/svg" xmlns:xlink="http://www.w3.org/1999/xlink" x="0px" y="0px"
	 viewBox="0 0 234.1 302.2" style="enable-background:new 0 0 234.1 302.2;" xml:space="preserve">
<style type="text/css">
	.st0{fill:#809EB6;stroke:#F2E8E2;stroke-width:1.9205;stroke-miterlimit:10;}
	.st1{fill:#E3D07F;stroke:#A69357;stroke-width:0.9667;stroke-miterlimit:10;}
	.st2{fill:#F2E8E2;}
	.st3{fill:#7A6C65;}
</style>
<g>
	<path class="st0" d="M58.2,29.9c0,0,36.4-34.1,80.4-26.5s65.3,45.8,75.1,61c9.8,15.1,17.9,68.1,13.6,107.9
		c-3.6,33.5-25.5,70.4-42.9,86.7s-33.9,33.9-67.7,36.7c-23.7,2-79.7,2.4-100.4-61s-6.9-111.2-0.7-144C20.8,62.9,58.2,29.9,58.2,29.9
		z"/>
	<g>
		<path class="st1" d="M157.4,197.1c-16.9-8.2-26.3-28.2-22.2-47.8c1.6-7.8,4.3-16.1,8.7-21.2c10.1-11.6,21.2-23.4,33.1-24.1
			c11.9-0.7,31.9-1.1,41.4,11.6s10.1,27.4,10.1,27.4s4.6,29.3-13.7,45.8s-42.2,15.5-56.9,8.5C157.7,197.3,157.6,197.2,157.4,197.1z"
			/>
		<g>
			<g>
				<path class="st2" d="M183.5,134c0,0,4.8,40.7-0.3,52.4s-9.1,18.5-19,13.3c-7.6-4-2.3-18.9,0.7-25.8c0.9-2.1,2-4,3.3-5.7
					c3.5-4.6,11.2-15.4,12.5-20.9C182.4,140.2,183.5,134,183.5,134z"/>
				<path class="st3" d="M183.5,133.9c1,6.4,1.5,12.7,2,19c0.4,6.4,0.7,12.7,0.4,19.1c-0.2,3.2-0.4,6.4-1,9.5
					c-0.3,1.6-0.7,3.1-1.3,4.6c-0.6,1.5-1.3,2.9-2,4.3c-0.7,1.4-1.4,2.8-2.2,4.2c-0.8,1.4-1.7,2.7-2.8,3.9c-1.1,1.2-2.5,2.2-4,2.6
					c-1.6,0.5-3.3,0.4-4.8,0c-0.4-0.1-0.8-0.2-1.2-0.4c-0.4-0.1-0.8-0.3-1.1-0.4c-0.7-0.3-1.5-0.6-2.2-1.1c-1.4-1-2.3-2.5-2.8-4
					c-0.9-3.2-0.5-6.5,0.1-9.6c0.6-3.2,1.6-6.2,2.7-9.2c0.6-1.5,1.2-3,1.9-4.4c0.7-1.4,1.6-2.8,2.5-4.1c1.9-2.5,3.7-5.1,5.5-7.7
					c1.8-2.6,3.5-5.3,5-8c0.7-1.4,1.4-2.8,1.9-4.3c0.3-0.7,0.4-1.5,0.6-2.3l0.6-2.4C182.1,140,182.9,137,183.5,133.9z M183.5,134
					c-0.7,3.2-1.2,6.4-1.8,9.4l-0.4,2.3c-0.2,0.8-0.3,1.5-0.5,2.3c-0.5,1.6-1.2,3-1.9,4.4c-3,5.7-6.6,10.9-10.4,16
					c-0.9,1.3-1.7,2.6-2.4,4c-0.7,1.4-1.3,2.9-1.9,4.3c-1.1,2.9-2.1,6-2.8,9c-0.6,3.1-1,6.3-0.2,9.3c0.4,1.5,1.2,2.8,2.4,3.7
					c0.6,0.5,1.3,0.8,2,1.1c0.3,0.2,0.7,0.3,1.1,0.4c0.4,0.1,0.7,0.3,1.1,0.4c1.5,0.4,3.1,0.5,4.6,0.1c1.5-0.4,2.8-1.3,3.9-2.5
					c2.2-2.3,3.7-5.2,5-8c0.7-1.4,1.3-2.9,1.9-4.4c0.6-1.5,0.9-3,1.2-4.6c0.5-3.1,0.7-6.3,0.8-9.5
					C185.4,159.4,184.5,146.6,183.5,134z"/>
			</g>
			<g>
				<path class="st2" d="M183.5,134c0,0,4.5,29.9,3.7,47.2c-0.5,9.7,4.7,13,9.3,14c4.9,1.1,9.7-1.9,11.2-7.1c0.9-3,1.2-6.9-0.1-11.9
					C204.3,163.3,183.5,134,183.5,134z"/>
				<path class="st3" d="M183.6,134c0.3,1.3,0.5,2.9,0.8,4.3c0.2,1.5,0.5,2.9,0.7,4.4c0.4,2.9,0.8,5.8,1.1,8.8
					c0.7,5.9,1.2,11.7,1.4,17.6c0.1,2.9,0.1,5.9,0,8.9c-0.1,3-0.5,5.9,0.3,8.8c0.3,1.4,0.9,2.8,1.8,4c0.8,1.2,2,2.2,3.2,2.9
					c2.5,1.4,5.6,2,8.3,1.1c2.8-0.9,4.9-3.1,5.9-5.8c1-2.7,1.2-5.7,0.9-8.5c-0.3-2.9-1.2-5.7-2.3-8.4c-0.5-1.4-1.2-2.7-1.8-4
					c-0.6-1.3-1.3-2.6-2-3.9C196.3,153.8,189.9,143.8,183.6,134z M183.5,133.9c3.6,4.8,6.9,9.6,10.1,14.5c3.2,4.9,6.3,10,9.1,15.2
					c1.4,2.6,2.7,5.2,3.8,8c1.2,2.7,2,5.7,2.3,8.6c0.3,3,0,6.1-1.1,8.9c-1.1,2.8-3.5,5.1-6.5,6c-1.4,0.5-3,0.5-4.5,0.2
					c-1.5-0.3-2.9-0.8-4.2-1.5c-1.3-0.7-2.4-1.8-3.3-3c-0.9-1.2-1.5-2.6-1.8-4.1c-0.8-2.9-0.5-5.9-0.5-8.8c0-2.9-0.1-5.9-0.3-8.8
					c-0.3-5.9-0.8-11.7-1.4-17.6C184.8,145.7,184.1,139.9,183.5,133.9z"/>
			</g>
			<g>
				<path class="st2" d="M183.6,134.2c0,0-3.4-22.3-12.6-23.3s-6.9,5-6.9,5s1.1,3.9,3.6,7.8C170.5,128,183.6,134.2,183.6,134.2z"/>
				<path class="st3" d="M183.6,134.2l-1.2-4.6c-0.4-1.5-0.9-3.1-1.4-4.6c-1-3-2.2-6-3.7-8.8c-0.8-1.4-1.7-2.7-3-3.7
					c-0.3-0.3-0.6-0.5-1-0.7c-0.4-0.2-0.7-0.4-1.1-0.5c-0.7-0.3-1.5-0.3-2.3-0.4c-1.6-0.1-3.2,0.1-4.5,0.9c-0.6,0.4-1,1.1-1.2,1.8
					c-0.1,0.7,0,1.5,0.2,2.2l0,0c0.7,2.1,1.6,4.3,2.8,6.2c0.3,0.5,0.6,1,0.9,1.4l0.5,0.6c0.2,0.2,0.4,0.4,0.6,0.6
					c0.8,0.8,1.7,1.5,2.6,2.2c1.8,1.4,3.8,2.6,5.8,3.8C179.6,131.9,181.7,133.1,183.6,134.2z M183.7,134.3c-2.2-0.9-4.3-1.9-6.4-3
					c-2.1-1.1-4.1-2.3-6-3.6c-1-0.7-1.9-1.4-2.7-2.3c-0.2-0.2-0.4-0.4-0.6-0.7l-0.6-0.7c-0.3-0.5-0.6-1-0.9-1.5
					c-1.1-2.1-2.1-4.2-2.7-6.5l0,0c-0.3-0.9-0.3-1.7-0.1-2.6c0.2-0.9,0.8-1.6,1.6-2.1c1.5-0.9,3.2-0.8,4.8-0.7
					c1.6,0,3.3,0.6,4.6,1.6c1.3,1,2.4,2.2,3.3,3.6c1.8,2.7,3,5.8,3.9,8.9c0.5,1.5,0.8,3.1,1.2,4.7c0.2,0.8,0.3,1.6,0.4,2.4
					C183.5,132.6,183.6,133.4,183.7,134.3z"/>
			</g>
			<g>
				<path class="st2" d="M183.6,134.2c0,0-10.1-7.5-18.9-10.4c-9.4-3.1-15.2-2-17.1,1.4c-0.9,1.5-0.2,3.1,0.7,4.4
					c1.3,1.7,3.1,2.7,5,3.1c2.6,0.6,7.3,1.6,12,2.1C172.4,135.6,183.6,134.2,183.6,134.2z"/>
				<path class="st3" d="M183.6,134.2c-2.8-1.7-5.7-3.6-8.6-5.2c-1.5-0.8-3-1.6-4.5-2.3c-1.5-0.8-3-1.4-4.6-2.1
					c-3.1-1.2-6.4-2.2-9.7-2.4c-1.7-0.1-3.4,0-5,0.6c-1.6,0.5-3,1.6-3.5,3.1c-0.5,1.5,0.5,3.1,1.6,4.2c1.1,1.1,2.6,1.9,4.2,2.3
					c3.3,0.7,6.6,1.3,9.9,1.8c3.3,0.5,6.7,0.6,10,0.5C176.9,134.6,180.3,134.4,183.6,134.2z M183.7,134.2c-3.4,0.6-6.7,0.9-10.1,1.1
					c-3.4,0.2-6.8,0.2-10.2-0.3c-3.4-0.4-6.7-1.1-10-1.9c-1.7-0.4-3.3-1.3-4.6-2.6c-0.6-0.7-1.1-1.4-1.5-2.2
					c-0.3-0.8-0.5-1.8-0.1-2.7c0.7-1.7,2.3-2.8,3.9-3.3c1.6-0.5,3.4-0.6,5.1-0.5c1.7,0.1,3.4,0.4,5,0.7c1.7,0.4,3.3,0.8,4.9,1.4
					c3.2,1.1,6.3,2.7,9.2,4.4c1.5,0.9,2.9,1.8,4.3,2.8c0.7,0.5,1.4,1,2.1,1.5C182.4,133.2,183,133.6,183.7,134.2z"/>
			</g>
			<g>
				<path class="st2" d="M183.6,134.1c0,0-15.6,8.4-24.7,11.4s-19.5,13.4-21.4,18c-1.9,4.6-1.3,13.8,8.8,13.2
					c10.1-0.6,14.9-6.2,18.3-9.2s13-16.5,14.5-19.6C180.5,144.8,183.1,138.1,183.6,134.1z"/>
				<path class="st3" d="M183.6,134.2c-4.8,2.8-9.9,5.4-14.9,7.8c-2.6,1.2-5.1,2.3-7.8,3.3c-1.3,0.5-2.7,0.9-3.9,1.5
					c-1.3,0.6-2.5,1.2-3.7,1.9c-2.4,1.4-4.7,3.1-6.8,4.9c-2.1,1.8-4.2,3.7-6,5.9c-0.9,1.1-1.8,2.2-2.4,3.4c-0.6,1.2-1,2.6-1.1,4
					c-0.3,2.7,0.4,5.7,2.5,7.6c1,0.9,2.3,1.5,3.6,1.7c1.3,0.2,2.7,0.3,4.1,0.1c2.8-0.3,5.5-1,8-2.2c2.5-1.2,4.7-2.9,6.8-4.7l1.6-1.4
					c0.5-0.5,1.1-0.9,1.5-1.4c1-1,1.9-2.1,2.8-3.1c3.5-4.4,6.9-8.9,9.9-13.6c0.4-0.6,0.8-1.2,1.1-1.8c0.3-0.6,0.6-1.2,0.9-1.9
					c0.6-1.3,1.1-2.6,1.6-3.9C182.1,139.6,183,136.8,183.6,134.2z M183.6,134.1c-0.1,1.5-0.5,2.8-0.8,4.2c-0.4,1.4-0.8,2.7-1.2,4.1
					c-0.5,1.3-0.9,2.7-1.5,4c-0.3,0.7-0.5,1.3-0.9,2c-0.3,0.7-0.7,1.3-1.1,1.9c-1.5,2.4-3.1,4.7-4.7,7.1c-1.6,2.3-3.3,4.6-5.1,6.8
					c-0.9,1.1-1.8,2.2-2.8,3.2c-0.5,0.5-1.1,1-1.6,1.4l-1.6,1.4c-2.1,1.9-4.5,3.6-7.1,4.8c-1.3,0.6-2.7,1.1-4,1.4
					c-1.4,0.3-2.8,0.6-4.2,0.7c-1.4,0.1-2.9,0.1-4.3-0.2c-1.4-0.3-2.8-1-3.8-2c-1.1-1-1.8-2.3-2.1-3.7c-0.4-1.4-0.4-2.8-0.3-4.3
					c0.1-1.4,0.5-2.8,1.2-4.1c0.7-1.3,1.5-2.4,2.4-3.5c3.6-4.3,7.8-8.2,12.7-11.2c1.2-0.7,2.5-1.4,3.8-2c1.3-0.6,2.7-1,4-1.5
					c2.6-1,5.2-2.1,7.8-3.2C173.5,139,178.5,136.6,183.6,134.1z"/>
			</g>
			<g>
				<path class="st2" d="M183.6,134.2c0,0-37.1-5.9-44.9,9.1c0,0-1,2.7,3.3,3.4C146.7,147.6,165.1,148,183.6,134.2z"/>
				<path class="st3" d="M183.6,134.2c-3.9-0.3-8-0.6-11.9-0.7c-4-0.1-8,0-12,0.3c-2,0.2-4,0.4-5.9,0.8c-2,0.4-3.9,0.8-5.8,1.5
					c-1.9,0.7-3.7,1.6-5.2,2.8c-1.6,1.2-2.9,2.7-3.8,4.5l0,0c-0.1,0.4-0.1,0.9,0.1,1.3c0.2,0.4,0.5,0.7,0.9,1
					c0.8,0.5,1.8,0.7,2.8,0.8c2,0.2,4.1,0.2,6.2,0.1c4.1-0.2,8.2-1,12.2-2c4-1.1,7.9-2.5,11.6-4.2c1.8-0.9,3.7-1.8,5.5-2.9
					C180.2,136.5,181.8,135.4,183.6,134.2z M183.7,134.2c-1.6,1.2-3.3,2.6-5.1,3.7c-1.7,1.2-3.6,2.2-5.4,3.1
					c-3.7,1.9-7.6,3.4-11.7,4.5c-4,1.1-8.2,1.8-12.4,1.9c-2.1,0.1-4.2,0-6.3-0.2c-1-0.1-2.1-0.4-3.1-1c-0.5-0.3-0.9-0.7-1.1-1.3
					c-0.2-0.5-0.3-1.1-0.1-1.7l0,0l0,0c1-1.8,2.4-3.3,4-4.5c1.6-1.2,3.4-2.1,5.3-2.9c3.8-1.5,7.7-2.3,11.7-2.8
					c4-0.4,8.1-0.4,12.1-0.3C175.7,133,179.7,133.4,183.7,134.2z"/>
			</g>
			<g>
				<path class="st2" d="M183.6,134.2c0,0-5-14-2.3-21.9s4.8-7.1,4.8-7.1s4.5-0.3,3.9,7.8S183.6,134.2,183.6,134.2z"/>
				<path class="st3" d="M183.6,134.3c-1.1-2.5-1.8-5-2.4-7.5c-0.6-2.6-1-5.2-1.1-7.8c0-1.3,0.1-2.7,0.3-4c0.1-0.7,0.2-1.3,0.5-1.9
					c0.2-0.6,0.4-1.3,0.6-1.9c0.5-1.2,1-2.4,1.6-3.6c0.3-0.6,0.7-1.1,1.1-1.6c0.2-0.2,0.5-0.5,0.8-0.7c0.3-0.2,0.6-0.4,1.1-0.3
					l-0.1,0c1.5-0.1,2.9,1,3.5,2.2c0.7,1.3,0.9,2.7,1,4c0.1,2.8-0.4,5.4-1.1,8.1c-0.7,2.6-1.6,5.1-2.5,7.6
					C186,129.4,185,131.8,183.6,134.3z M183.6,134.2c0.9-2.4,1.8-5,2.7-7.5c0.9-2.5,1.6-5.1,2.3-7.6c0.6-2.6,1.2-5.2,1.2-7.8
					c0-1.3-0.2-2.6-0.7-3.7c-0.5-1.1-1.6-2-2.8-2.1l-0.1,0l0,0c-0.1,0-0.5,0-0.7,0.2c-0.3,0.1-0.5,0.4-0.7,0.6
					c-0.4,0.5-0.8,1-1.1,1.5c-0.7,1.1-1.2,2.3-1.6,3.5c-0.9,2.4-1.1,5-0.9,7.6c0.1,2.6,0.5,5.2,1,7.7
					C182.4,129.1,183,131.7,183.6,134.2z"/>
			</g>
			<g>
				<path class="st2" d="M183.6,134.2c0,0,5.7-14.5,13.1-20.1c7.4-5.7,11.4-2.4,11.4-2.4s2.7,2.6,0.1,6.6S183.6,134.2,183.6,134.2z"
					/>
				<path class="st3" d="M183.6,134.3c0.2-0.8,0.5-1.5,0.8-2.2c0.3-0.7,0.6-1.4,0.9-2.1c0.6-1.4,1.3-2.8,2-4.1c1.4-2.7,3-5.3,5-7.7
					c0.5-0.6,1-1.2,1.5-1.7c0.6-0.5,1.1-1.1,1.7-1.6c0.6-0.5,1.2-1,1.9-1.4c0.6-0.5,1.3-0.8,2-1.2c1.4-0.7,2.8-1.3,4.4-1.5
					c1.5-0.2,3.2-0.1,4.6,0.8l0,0l0,0c1.2,1.2,1.7,2.9,1.3,4.5c-0.2,0.8-0.5,1.6-0.9,2.2c-0.4,0.7-1,1.3-1.6,1.8
					c-2.3,2.1-4.9,3.7-7.5,5.4c-2.6,1.6-5.2,3.2-7.9,4.6C189.1,131.5,186.5,132.9,183.6,134.3z M183.7,134.2
					c2.5-1.6,5.2-3.2,7.7-4.8c2.6-1.6,5.2-3.2,7.7-4.8c1.3-0.8,2.5-1.7,3.8-2.5c1.2-0.9,2.5-1.7,3.6-2.7c0.6-0.5,1.1-1,1.5-1.6
					c0.4-0.6,0.7-1.3,0.9-1.9c0.4-1.4,0-2.9-0.9-4l0,0c-1.1-0.8-2.7-1.1-4.2-0.9c-1.5,0.2-2.9,0.7-4.2,1.5c-2.6,1.5-4.8,3.7-6.6,6.1
					c-1.8,2.4-3.5,5-5,7.6C186.4,128.8,185,131.6,183.7,134.2z"/>
			</g>
			<g>
				<path class="st2" d="M183.6,134.2c0,0,23.6-13,32.4-10c8.9,3.1,9.9,10.3,5.5,16C217.1,145.9,183.6,134.2,183.6,134.2z"/>
				<path class="st3" d="M183.6,134.2c3.4-2.1,6.9-3.8,10.5-5.5c3.6-1.6,7.3-3.1,11.1-4.1c1.9-0.5,3.9-0.9,5.9-1
					c2-0.1,4-0.1,5.9,0.8c1.8,0.7,3.6,1.7,5,3.2c0.7,0.7,1.2,1.6,1.7,2.5c0.4,0.9,0.7,1.9,0.8,2.9c0.2,2-0.4,4.1-1.4,5.8
					c-0.2,0.5-0.5,0.9-0.8,1.3c-0.3,0.4-0.7,0.9-1.1,1.2c-0.9,0.6-2,0.8-3,0.9c-2,0.2-4,0.1-6-0.1c-2-0.2-3.9-0.6-5.9-1
					c-3.9-0.8-7.7-1.8-11.4-3C191,137,187.3,135.7,183.6,134.2z M183.7,134.2c7.5,2.2,15.1,4.3,22.7,5.9c1.9,0.4,3.8,0.7,5.8,0.9
					c1.9,0.2,3.9,0.4,5.8,0.2c0.9-0.1,1.9-0.3,2.6-0.7c0.2-0.1,0.3-0.2,0.5-0.4c0.2-0.1,0.3-0.3,0.4-0.5c0.3-0.4,0.6-0.8,0.8-1.2
					c1-1.6,1.6-3.5,1.5-5.4c0-1-0.3-1.9-0.6-2.8c-0.4-0.9-0.9-1.7-1.6-2.4c-1.3-1.4-3-2.4-4.8-3.1c-1.8-0.8-3.8-0.8-5.7-0.6
					c-1.9,0.2-3.8,0.7-5.7,1.3C197.9,127.6,190.7,130.9,183.7,134.2z"/>
			</g>
			<g>
				<path class="st2" d="M183.6,134.2c0,0,19.7,27.7,21.7,30.8c2,3.1,11.7,13.6,17.6,10.1s7.9-14.2,1.4-19.3
					C217.9,150.8,203.1,138.7,183.6,134.2z"/>
				<path class="st3" d="M183.7,134.3c6.5,8.9,12.8,17.3,18.8,26l2.2,3.3c0.8,1.1,1.4,2.2,2.3,3.2c1.7,2,3.6,3.9,5.7,5.6
					c2.1,1.6,4.5,3.1,7.1,3.3c0.6,0,1.3,0,1.9-0.2c0.6-0.2,1.2-0.5,1.7-0.9c1.1-0.8,1.9-1.8,2.6-2.9c0.4-0.5,0.6-1.1,0.9-1.7
					c0.2-0.6,0.5-1.2,0.6-1.9c0.4-1.3,0.5-2.6,0.4-3.9c0-1.3-0.3-2.6-0.8-3.8c-0.5-1.2-1.2-2.3-2-3.2c-0.9-0.9-2-1.7-3-2.5
					c-1.1-0.8-2.1-1.6-3.2-2.4c-2.1-1.6-4.3-3.1-6.5-4.6C203.6,141.8,193.9,137,183.7,134.3z M183.6,134.2c5.3,1,10.4,2.8,15.3,4.9
					c4.9,2.2,9.6,4.8,14.1,7.7c2.2,1.5,4.4,3,6.6,4.6c1.1,0.8,2.1,1.6,3.2,2.5c1,0.8,2.1,1.6,3.1,2.6c0.9,1.1,1.7,2.2,2.2,3.5
					c0.4,1.3,0.7,2.7,0.7,4.1c0,1.4-0.2,2.7-0.6,4c-0.2,0.7-0.4,1.3-0.7,1.9c-0.3,0.6-0.6,1.2-1,1.8c-0.7,1.1-1.7,2.2-2.8,2.9
					c-1.1,0.8-2.5,1.2-3.9,1.1c-1.4-0.1-2.7-0.6-3.9-1.2c-1.2-0.6-2.3-1.3-3.4-2.2c-2.1-1.6-4.1-3.5-5.9-5.5c-0.9-1-1.7-2.1-2.5-3.2
					l-2.4-3.3C195.5,151.8,189.5,142.7,183.6,134.2z"/>
			</g>
		</g>
	</g>
</g>
</svg>
