<svg version="1.1" id="Layer_1" xmlns="http://www.w3.org/2000/svg" x="0" y="0" viewBox="0 0 228.3 242.5" style="enable-background:new 0 0 228.3 242.5" xml:space="preserve"><style>.st0,.st5,.st6{stroke-miterlimit:10}.st0{fill:none;stroke:#e5b6b1;stroke-width:2.0637;stroke-linecap:round}.st5,.st6{fill:#f2e8e2;stroke:#7a6c65;stroke-width:.4127}.st6{fill:#e5b6b1}</style><path class="st0" d="M93.4 24.4s8.9 19.2 21.9 26.6c13 7.3 12.6 12.8 41.5 10.1s21.9-35 21.9-35-5.1-14.3-25.2-19.8-30.2 11-30.8 14.6-3.2 16.1 4.5 21.6 14.6 7.6 23.7 3 13.9-14.6 12.3-23.5c-1.6-8.8-9.8-14.3-14-16.8"/><path d="m73.7 191.6 12.6-64.9 11-75.2-4.7-47c-3 .6-6 1.2-9 1.7-6.9 1.3-14.4 4.8-21.7 9.1C36 30.6 17.2 54.5 8.1 81.9c-2.6 7.7-4.6 15.8-6.2 24.2-4.9 26.3.6 48.9 6.6 67.4s36.7 73.6 88.2 66.9c9.1-1.2 10.1-1.1 16.8-2.5l-39.8-46.3z" style="fill:#d8d2a9"/><path d="M96.1 235.5c-11.6 0-17.3-3.5-22.2-6.6l-.7-.4c-4.2-2.6-12.3-14-20.8-29-7.4-13.1-11.3-28.9-12.3-33.4-1.2-5.1-1.7-14.7-1.4-25 .3-8.8 7-26.4 7.5-27.4 5.2-8.9 16.5-16.4 23.9-21.4 3.3-2.2 5.9-4 7.3-5.3 5.5-5.3 11.2-12.5 15.9-29.3 1.8-6.4 2.3-10.9 2.1-14.1 1.7 5.9 6.2 16 17.3 20.2 14.7 5.5 36.3 27.7 38 29.4 1.1 2 14.4 27.6 14.4 39.9 0 3.1.4 6.8.8 11 1.4 13.8 3.3 32.7-5.9 51.9-5.1 10.8-14.7 30.9-45.1 37.2-7.1 1.6-13.3 2.3-18.8 2.3zM94.5 38.7c-.2-.4-.4-.8-.6-1-.5-1.6-5-13.5-20.5-13.5-1.1 0-2.3.1-3.5.2C58.1 25.6 48 29.9 42 33c6.2-6.2 18.3-16.5 34.5-22.5C96.3 3.2 107 3 117.4 2.8c2.4 0 4.9-.1 7.5-.2 1.3-.1 2.6-.1 4-.1 5 0 9.5.5 13.2 1-4 .5-9.6 1.5-16.9 3.3-15.8 4-18.4 6.7-21.9 10.3-.4.4-.9.9-1.3 1.4-.6.6-1.3 1.2-1.9 1.8-3.2 3-6.1 5.6-6 11.2l-.6-1.7 1 8.9z" style="fill:#f2e8e2"/><path d="M128.9 3.4c1.8 0 3.6.1 5.4.2-2.7.5-5.8 1.2-9.3 2.1-16.1 4.1-18.8 6.8-22.4 10.6l-1.3 1.3c-.6.6-1.3 1.2-1.9 1.7-2.4 2.2-4.6 4.3-5.7 7.5l-2.3-6.6 1.5 12.7c-2.7-4.2-8.4-9.9-19.3-9.9-1.2 0-2.4.1-3.6.2-8.6.9-16.4 3.4-22.3 5.9 6.7-5.9 16.8-13.2 29.3-17.8 19.6-7.3 29.8-7.5 40.6-7.7 2.4 0 4.9-.1 7.5-.2h3.8M96.3 48.9c2.6 5.8 7.3 12.6 16.2 15.9 14.2 5.3 35.3 26.7 37.5 29.1 1.4 2.8 14.2 27.4 14.2 39.3 0 3.2.4 6.8.8 11.1 1.4 13.7 3.2 32.4-5.8 51.3-5.1 10.6-14.5 30.5-44.3 36.6-7.2 1.5-13.5 2.2-18.8 2.2-11.3 0-16.6-3.3-21.7-6.4l-.7-.4c-4-2.5-12-13.7-20.4-28.6-7.3-13-11.2-28.6-12.2-33.1-1.1-5.1-1.7-14.5-1.3-24.7.3-8.5 6.6-25.3 7.3-26.9 5.1-8.7 16.2-16.1 23.6-21.1 3.4-2.3 6-4 7.5-5.5 5.6-5.4 11.4-12.8 16.1-29.7 1.1-3.5 1.7-6.5 2-9.1M128.9 1.3c-1.3 0-2.7 0-4 .1-13.7.7-24.1-1.1-48.7 8-24.5 9.1-39.5 27.9-39.5 27.9s14.6-10 33.5-12c1.2-.1 2.3-.2 3.4-.2 16 0 19.5 12.9 19.5 12.9 1.1 1.6 3.1 6.5-.6 19.4C87.8 74 82.1 81.1 76.9 86.2c-4.5 4.4-23.9 14.1-31.5 27.1-.2.4-7.3 18.5-7.6 27.8-.3 10.7.2 20.1 1.4 25.2 1.8 7.9 5.9 22 12.4 33.6 7.5 13.3 16.2 26.3 21.1 29.3 5.3 3.3 11 7.2 23.4 7.2 5.1 0 11.4-.7 19.2-2.3 29.8-6.2 39.9-25.5 45.8-37.8 12-25.3 5.2-50.1 5.2-63.3s-14.6-40.5-14.6-40.5-22.9-23.9-38.5-29.8C97.6 57 95.6 39 95.6 39s.3.9.5.9.2-1.1-.6-5.6c-1.5-8.6 2.8-10.8 7.2-15.2 4.4-4.3 5.3-7 22.8-11.4 13.3-3.4 20.7-3.8 23.6-3.8h1.3s-9.6-2.6-21.5-2.6z" style="fill:#e5b6b1"/><path class="st0" d="M93.6 32.5s8.9-19.5 23.6-22.9S143 3.8 151 4.8c0 0 35.1 6.9 39.4 38.7 4.3 31.8 10.2 36.5 8.1 70.1-2.1 33.6-10.6 53.6-28.7 87.7C150.4 238 97.5 236 97.5 236"/><path class="st0" d="M123.2 233.2s-65.1 26.4-94.6-44.7c-19-45.7-15.3-85.9-15.3-85.9s5.9-42.1 18.3-55.4 30.1-9.4 34.2-6.1 10.9 6.8 10.4 17.4-6.7 16.1-11.8 19c-5.1 2.9-23.9 6.4-29.9-7.8s4.9-24.4 4.9-24.4 3.6-4.5 9.6-7.2c0 0-11.9 3.4-17.5 12.6s-1 23.2 1.8 25.6c2.8 2.5 9 8.1 20.6 9.7 11.6 1.5 27.6-6.3 33.3-20.1s4.9-24.6 4.9-24.6"/><path d="M8.1 81.9C17.2 54.4 36 30.6 61.9 15.3c7.2-4.3 14.8-7.8 21.7-9.1 22.5-4.1 43.8-10.8 72.9-1.5s48.2 23.7 59.2 39.1 12.6 64.9 6.6 85.4-8.2 43.8-37.8 69.5-36.2 35-87.7 41.7S14.6 192 8.6 173.5-3 132.3 1.9 106.1c1.6-8.4 3.7-16.5 6.2-24.2z" style="fill:none;stroke:#a8586a;stroke-width:1.0319;stroke-miterlimit:10"/><g><path class="st5" d="M93.5 24.4s-1.2-10.3-.5-14.3c.4-2.2 3.1-5.5 6.4-4.9s4.1 4.7 3.3 6.5c-.4.9-1.3 4.2-9.2 12.7z"/><path class="st5" d="m93.5 24.4-10.3-7c-1-.7-1.8-1.6-2.2-2.7-.4-1.2-.6-2.7.2-4.1 1.7-2.9 5.4-2.9 5.9-2.7.5.3 2.1.5 3.7 2.8 1.6 2.2 2.7 13.7 2.7 13.7z"/><path class="st5" d="M93.3 24.2s10 .9 13.6 2.5c2 .9 4.4 4.2 3 7.4-1.3 3.2-5.4 3.1-7 1.9-.8-.7-3.7-2.3-9.6-11.8z"/><path class="st5" d="M93.5 24.3s-2.9 9.1-5.3 12.1c-1.3 1.7-5.3 3.2-8.4 1.4s-2.2-5.7-.6-6.8c.8-.7 3-3 14.3-6.7z"/><path class="st6" d="m93.6 24.4-12.8 3.5c-1.2.3-2.6.3-3.8-.1-1.2-.4-2.6-1.3-3.3-2.9-1.3-3.2 1.2-6.1 1.7-6.3s1.9-1.3 4.8-1.1c3 .3 13.4 6.9 13.4 6.9z"/><path class="st6" d="m93.5 24.4 6.5 10.9c.6 1.1.9 2.3.8 3.5-.2 1.2-.7 2.7-2.2 3.7-3 1.9-6.6.3-6.9-.2-.4-.5-1.8-1.4-2.2-4.1-.5-2.9 4-13.8 4-13.8z"/><path class="st6" d="m93.4 24.4 9.7-8.6c.9-.8 2.1-1.4 3.4-1.5s3 0 4.3 1.1c2.7 2.2 1.9 5.9 1.5 6.4s-1 2-3.7 3c-2.8 1-15.2-.4-15.2-.4z"/></g></svg>